/* XPM */
static char * bottom_character_xpm[] = {
"100 100 25 1",
" 	c #304030",
".	c #404050",
"+	c #282828",
"@	c #609008",
"#	c #909070",
"$	c #483840",
"%	c #F8F8B0",
"&	c #F8C090",
"*	c #A07860",
"=	c #1058A8",
"-	c #48A0F0",
";	c #487838",
">	c #908870",
",	c #808050",
"'	c #98E8F8",
")	c #387038",
"!	c #98A078",
"~	c #9088B0",
"{	c #485878",
"]	c #8090B8",
"^	c #F8F8F8",
"/	c #98B8D8",
"(	c #C0E0E8",
"_	c #802018",
":	c #D03808",
"      ...................................++++++..............      .....@@@@@@#####@@@@@@$$$$$$$$$$$",
"      ...................................++++++..............      .....@@@@@@#####@@@@@@$$$$$$$$$$$",
"      ...................................++%%&&++............      .....@@@@@@#####@@@@@@$$$$$$$$$$$",
"      ...................................++&&**++............      .....@@@@@@#####@@@@@@$$$$$$$$$$$",
"      ...................................++&&**++............      .....@@@@@@#####@@@@@@$$$$$$$$$$$",
"      .....................................++==--++..........      .....@@@@@@#####@@@@@@$$$$$$$$$$$",
"      ...........;;;;;      .....;;;;;;>>>>++==--++......................................,,,,,$$$$$$",
"      ...........;;;;;      .....;;;;;;>>>>++--''++......................................,,,,,$$$$$$",
"      ...........;;;;;      .....;;;;;;>>>>++==--==++....................................,,,,,$$$$$$",
"      ...........;;;;;      .....;;;;;;>>>>++==--==++....................................,,,,,$$$$$$",
"      ...........;;;;;      .....;;;;;;>>>>>>++====++....................................,,,,,$$$$$$",
"      ...........;;;;;      .....;;;;;;>>>>>>>>++''++....................................,,,,,$$$$$$",
"      ...........;;;;;      @@@@@;;;;;;;;;;;)))++''++...>>>>>!!!!!!!!!!!>>>>>>>>>>>......,,,,,$$$$$$",
"      ...........;;;;;      @@@@@;;;;;;;;;;;)))))++==++.>>>>>!!!!!!!!!!!>>>>>>>>>>>......,,,,,$$$$$$",
"      ...........;;;;;      @@@@@;;;;;;;;;;;)))))++==++.>>>>>!!!!!!!!!!!>>>>>>>>>>>......,,,,,$$$$$$",
"      ...........;;;;;      @@@@@;;;;;;;;;;;)))))++==++.>>>>>!!!!!!!!!!!>>>>>>>>>>>......,,,,,$$$$$$",
"      ...........;;;;;      @@@@@;;;;;;;;;;;)))++++++++++++>>!!!!!!!!!!!>>>>>>>>>>>......,,,,,$$$$$$",
"      ...........;;;;;      @@@@@;;;;;;;;;;;)))++++++++++++>>!!!!!!!!!!!>>>>>>>>>>>......,,,,,$$$$$$",
"      ...........@@@@@      @@@@@@@@@@@;;;;;)))++==--''''==++######~~~~~######@@@@@      ,,,,,$$$$$$",
"      ...........@@@@@      @@@@@@@@@@@;;;;;)))++==--''''==++######~~~~~######@@@@@      ,,,,,$$$$$$",
"      ...........@@@@@      @@@@@@@@@@@;;;;;)++++--''==--''==++####~~~~~######@@@@@      ,,,,,$$$$$$",
"      ...........@@@@@      @@@@@@@@@@@;;;;;)++==--==&&==----++++++++~~~######@@@@@      ,,,,,$$$$$$",
"      ...........@@@@@      @@@@@@@@@@@;;;;;)++==--==&&==----++++++++~~~######@@@@@      ,,,,,$$$$$$",
"      ...........@@@@@      @@@@@@@@@@@;;;;;)++====%%++**==--++{{{{{{+++++++##@@@@@      ,,,,,$$$$$$",
"                            .....      ..... ++====%%++**==--++{{{{{{+++++++..     ......,,,,,$$$$$$",
"                +++++++++++++....      ..++++++++&&%%++%%%%==++{{]]]]]]]]{{{++++++ ......,,,,,$$$$$$",
"          ++++++{{]]]]]]]]]{{++++    ++++{{{{{{++**%%^^%%**++++++]]]]]]]]]]]++++   ......,,,,,$$$$$$",
"          ++++++{{]]]]]]]]]{{++++    ++++{{{{{{++**%%^^%%**++++++]]]]]]]]]]]++++   ......,,,,,$$$$$$",
"    ++++++{{{{{{{{{{{{{{]]]]]]]{{++++{{++++++++++++++&&**++++++{{++]]]]]]+++..     ......,,,,,$$$$$$",
"    ++++++{{{{{{{{{{{{{{]]]]]]]{{++++{{++++++++++++++&&**++++++{{++]]]]]]+++..>>>>>>>>>>>,,,,,$$$$$$",
"++++++++++++++{{{{{{{{{{{{{{{{{{{{{{{++======**++]]{{++++++++++{{{{++]]++.....>>>>>>>>>>>,,,,,$$$$$$",
"              ++++++{{{{{{{{{{{{{{{++====--&&++{{{{]]]]++{{]]]]++]]{{++++.....>>>>>>>>>>>,,,,,$$$$$$",
"              ++++++{{{{{{{{{{{{{{{++====--&&++{{{{]]]]++{{]]]]++]]{{++++.....>>>>>>>>>>>,,,,,$$$$$$",
"                 ...++{{{{{{{{{{{{{++****&&++{{++++++++++{{++++]]++]]+++++++..>>>>>>>>>>>,,,,,$$$$$$",
"                 .....+++++{{{{{{{{{{++++++{{{{++==++{{]]]]++^^++{{]]++//+++..>>>>>>>>>>>,,,,,$$$$$$",
"                 ;;;;;+++++{{{{{{{{{{++++++{{{{++==++{{]]]]++^^++{{]]++//+++>>@@@@@>>>>>>,,,,,$$$$$$",
"                 ;;;;;;;;;;++++{{{{{{]]]]]]]]++**&&%%++{{{{++//++====++//+++>>@@@@@>>>>>>,,,,,$$$$$$",
"                 ;;;;;;;;;;++++{{{{{{]]]]]]]]++**&&%%++{{{{++//++====++//+++>>@@@@@>>>>>>,,,,,$$$$$$",
"                 ;;;;;;;;;;;   ++++++++++++++++++++++++++{{{{==--''''==+++++>>@@@@@>>>>>>,,,,,$$$$$$",
"                 ;;;;;;;;;;;     @@@@@@++==++++==++++{{{{{{{{--''''''--+++++>>@@@@@>>>>>>,,,,,$$$$$$",
"                 ;;;;;;;;;;;     @@@@@@++==++++==++++{{{{{{{{--''''''--+++++>>@@@@@>>>>>>,,,,,$$$$$$",
"                            .........++--++++++++++{{{{{{]]++----''''--+++++>>#####@@@@@@,,,,,$$$$$$",
"                            .........++--++++++++++{{{{{{]]++----''''--+++++>>#####@@@@@@,,,,,$$$$$$",
"                            ...++++..++++]]++]]//++++{{{{]]++++--''--+++++++>>#####@@@@@@,,,,,$$$$$$",
"                            .....++++++{{++{{//]]++++{{{{//++==--''--==+++++>>#####@@@@@@,,,,,$$$$$$",
"                            .....++++++{{++{{//]]++++{{{{//++==--''--==+++++>>#####@@@@@@,,,,,$$$$$$",
"                +++++++++++++++++..++++{{++]]{{{{++{{{{{{////++--''--++]]+++>>#####@@@@@@,,,,,$$$$$$",
"      ..........+++++++++++++++++  ++++{{++]]{{{{++{{{{{{////++--''--++]]+++.............,,,,,$$$$$$",
"      ...........@@@++++{{{{{{{{{++++==++++++++++++++{{{{////++==--==++((+++.............,,,,,$$$$$$",
"      ...........@@@@@@@+++++{{{{{{++++&&====--==++==++//////++^^^^^^++((+++++...........,,,,,$$$$$$",
"      ...........@@@@@@@+++++{{{{{{++++&&====--==++==++//////++^^^^^^++((+++++...........,,,,,$$$$$$",
"      ...........@@@@@@@@@@@.++{{{{++++++==----==++++]]////((++{{(({{++^^]]]++...........,,,,,$$$$$$",
"      ...........@@@@@@@@@@@...++{{{{++==++++++==++++//////^^//++++++((^^(((++++.........,,,,,$$$$$$",
"      ...........;;;;;;;;;;;...++{{{{++==++++++==++++//////^^//++++++((^^(((++++>>>......,,,,,$$$$$$",
"      ...........;;;;;;;;;;;...++{{{{++++]]//((++==++++]]//^^((((((((^^^^(((++++>>>......,,,,,$$$$$$",
"      ...........;;;;;;;;;;;...++{{{{++++]]//((++==++++]]//^^((((((((^^^^(((++++>>>......,,,,,$$$$$$",
"      ...........;;;;;;;;;;;...++{{{{++++]]//++++++++**++++//^^((((//^^^^=====++++>......,,,,,$$$$$$",
"      ...........;;;;;;;;;;;.....++++++++{{++******&&++**++++++=============&&++++>......,,,,,$$$$$$",
"      ...........;;;;;;;;;;;.....++++++++{{++******&&++**++++++=============&&++++>......,,,,,$$$$$$",
"      ...........;;;;;;;;;;;.....++++==++++++**&&%%**++++****&&&&==%%&&&&*******++++.....,,,,,$$$$$$",
"      ...........;;;;;;;;;;;.....++++==++++++**&&%%**++++****&&&&==%%&&&&*******++++.....,,,,,$$$$$$",
"      ...........;;;;;;;;;;;.....  ++==++==++++++++////]]++====%%==%%=======**%%**==++...,,,,,$$$$$$",
"      ...........;;;;;;;;;;;.....  ++====++--++]]//////((//++++**%%**++++(((**%%&&**%%++.,,,,,$$$$$$",
"      ...........;;;;;;;;;;;.....  ++====++--++]]//////((//++++**%%**++++(((**%%&&**%%++.,,,,,$$$$$$",
"      ...........;;;;;;;;;;;.....++**====++==++{{////((((((((//++++++((^^^^^**&&&&**__%%++++,,$$$$$$",
"                                 ++**====++==++{{////((((((((//++++++((^^^^^**&&&&**__%%++++,,$$$$$$",
"                               ++====**==++====++]]//((((^^^^^^((//^^^^^^(((((++++__%%::%%%%++$$$$$$",
"                               ++++====**++======++]]((^^^^^^((////((^^//(((^^++&&__::::&&**++$$$$$$",
"                               ++++====**++======++]]((^^^^^^((////((^^//(((^^++&&__::::&&**++$$$$$$",
"                                 ..++====++****==++]]]]((////++++++++////(((^^((++**____{{(({{$$$$$$",
"                                 ....++++++----==++]]((((((++{{{{{{{{++//^^^^^^^++**{{{{//^^(({{$$$$",
"           ...........@@@@@@.....@@@@++++++----==++]]((((((++{{{{{{{{++//^^^^^^^++**{{{{//^^(({{$$$$",
"           ...........@@@@@@.....@@@@++++{{++++++++]]^^((((++{{{{]]]]++++^^^^^^^++{{////]]^^^^++$$$$",
"           ...........@@@@@@.....@@@@++++{{++++++++]]^^((((++{{{{]]]]++++^^^^^^^++{{////]]^^^^++$$$$",
"           ...........@@@@@@.....@@@@++{{{{++@@@@++]]^^((++  ++{{////++++///((((++++{{((//]]^^{{$$$$",
"           ...........@@@@@@.....@@@@++{{{{++@@@@++]]^^//++  ++{{////++{{+++++++    ++{{((//^^//{{$$",
"           ...........;;;;;;.....    ++{{{{++    ++]]^^//++..++{{////++{{+++++++>>>>++{{((//^^//{{$$",
"           ...........;;;;;;.....  ++++{{++      ++//^^((++..++{{]]//++{{]]]{{++>>>>>>++]]((^^^^{{$$",
"           ...........;;;;;;.....  ++++{{++      ++//^^((++..++{{]]//++{{]]]{{++>>>>>>++]]((^^^^{{$$",
"           ...........;;;;;;.....++{{{{{{++      ++((^^^^++....++{{]]{{+++++++>>>>>>>>>>++]]((^^{{$$",
"           ...........;;;;;;.....++{{{{{{++      ++//^^^^++......++]]//++>>>>>>>>>>>>>>>>,++//^^(({{",
"           ...........;;;;;;.....++{{{{{{++      ++//^^^^++......++]]//++>>>>>>>>>>>>>>>>,++//^^(({{",
"           ...........;;;;;;.....++{{{{{{++;@@@@@@@++//((++@@@@@@@@++]]//+++>>>>>>>>>>>>>,,,++//^^{{",
"           ...........;;;;;;.....++{{{{{{++;@@@@@@@++//((++@@@@@@@@++]]//+++>>>>>>>>>>>>>,,,++//^^{{",
"           ...........;;;;;;.....@@++++++;;;@@@@@@@++//^^++@@@@@@@@++{{//+++>>>>>>>>>>>>>,,,,,++(({{",
"           ...........;;;;;;.....@@@@@@;;;;;@@@@@@@++//^^++@@@@@@@@..++/////++>>>>>>>>>>>,,,,,$$++{{",
"           ...........;;;;;;.....@@@@@@;;;;;@@@@@@@++//^^++@@@@@@@@..++/////++>>>>>>>>>>>,,,,,$$++{{",
"           ...........;;;;;;.....@@@@@@;;;;;@@@@@@@++//^^++@@@@@@@@..++]]///]]++>>>>>>>>>,,,,,$$$$$$",
"                            ;;;;;;;;;;;;;;;;)))))))++//^^++))@@@@@@  ++]]///]]++@@@######,,,,,$$$$$$",
"                            ;;;;;;;;;;;;;;;;)))))))++((^^++))@@@@@@  ++{{{{{{{++@@@######,,,,,$$$$$$",
"                            ;;;;;;;;;;;;;;;++++++++++^^^^++++++++++++++++]]]{{++@@@######,,,,,$$$$$$",
"                            ;;;;;;;;;;;;;;;++++++++++^^^^++++++++++++++++]]]{{++@@@######,,,,,$$$$$$",
"                            ;;;;;;;;;++++++++++++++++]]//+++++++++++++++++++++++@@@######,,,,,$$$$$$",
"                            ;;;;;++++++++++++++++++{{]]//]]+++++++++++++++++++++++++#####,,,,,$$$$$$",
"      ...........................++++++++++++++++++{{]]//]]+++++++++++++++++++++++++@@@@@$$$$$$$$$$$",
"      ...........................++++++++++++++++++++]]((]]+++++++++++++++++++++++++@@@@@$$$$$$$$$$$",
"      ...........................++++++++++++++++++++]]((]]+++++++++++++++++++++++++@@@@@$$$$$$$$$$$",
"      ...........................+++++++++++++++++++++++++++++++++++++++++++++++###@@@@@@$$$$$$$$$$$",
"      .................................++++++++++++++++++++++++++++++++++@@@@@#####@@@@@@$$$$$$$$$$$",
"      .................................++++++++++++++++++++++++++++++++++@@@@@#####@@@@@@$$$$$$$$$$$"};
