/* XPM */
static char * chest_xpm[] = {
"100 100 12 1",
" 	c #E0D038",
".	c #B8A000",
"+	c #C03010",
"@	c #D82830",
"#	c #902808",
"$	c #484010",
"%	c #F8F8D0",
"&	c #F86858",
"*	c #F8D8A8",
"=	c #A05850",
"-	c #B8C8A0",
";	c #9860D8",
"      ......+++++++@@@@@@@@@@@@++++++...................######+++++++@@@@@@@@@@@@      .......$$$$$$",
"      ......+++++++@@@@@@@@@@@@++++++...................######+++++++@@@@@@@@@@@@      .......$$$$$$",
"      ......+++++++@@@@@@@@@@@@++++++...................######+++++++@@@@@@@@@@@@      .......$$$$$$",
"      ......+++++++@@@@@@@@@@@@++++++...................######+++++++@@@@@@@@@@@@      .......$$$$$$",
"      ......+++++++@@@@@@@@@@@@++++++...................######+++++++@@@@@@@@@@@@      .......$$$$$$",
"      ......+++++++@@@@@@@@@@@@++++++...................######+++++++@@@@@@@@@@@@      .......$$$$$$",
"            @@@@@@@@@@@@@@@@@@@++++++                   ######+++++++@@@@@@@@@@@@      .......$$$$$$",
"            @@@@@@@@@@@@@@@@@@@++++++                   ######+++++++@@@@@@@@@@@@      .......$$$$$$",
"            @@@@@@@@@@@@@@@@@@@++++++                   ######+++++++@@@@@@@@@@@@      .......$$$$$$",
"            @@@@@@@@@@@@@@@@@@@++++++                   ######+++++++@@@@@@@@@@@@      .......$$$$$$",
"            @@@@@@@@@@@@@@@@@@@++++++                   ######+++++++@@@@@@@@@@@@      .......$$$$$$",
"            @@@@@@@@@@@@@@@@@@@++++++                   ######+++++++@@@@@@@@@@@@      .......$$$$$$",
"%%%%%%      @@@@@@@&&&&&&&&&&&&++++++%%%%%%%%%%%%%      ######&&&&&&&******@@@@@@%%%%%%.......$$$$$$",
"%%%%%%      @@@@@@@&&&&&&&&&&&&++++++%%%%%%%%%%%%%      ######&&&&&&&******@@@@@@%%%%%%.......$$$$$$",
"%%%%%%      @@@@@@@&&&&&&&&&&&&++++++%%%%%%%%%%%%%      ######&&&&&&&******@@@@@@%%%%%%.......$$$$$$",
"%%%%%%      @@@@@@@&&&&&&&&&&&&++++++%%%%%%%%%%%%%      ######&&&&&&&******@@@@@@%%%%%%.......$$$$$$",
"%%%%%%      @@@@@@@&&&&&&&&&&&&++++++%%%%%%%%%%%%%      ######&&&&&&&******@@@@@@%%%%%%.......$$$$$$",
"%%%%%%      @@@@@@@&&&&&&&&&&&&++++++%%%%%%%%%%%%%      ######&&&&&&&******@@@@@@%%%%%%.......$$$$$$",
"%%%%%%      @@@@@@@&&&&&&&&&&&&++++++%%%%%%%%%%%%%      ######&&&&&&&******@@@@@@%%%%%%.......$$$$$$",
"%%%%%%      @@@@@@@******&&&&&&++++++%%%%%%%%%%%%%      ######@@@@@@@&&&&&&######%%%%%%.......$$$$$$",
"%%%%%%      @@@@@@@******&&&&&&++++++%%%%%%%%%%%%%      ######@@@@@@@&&&&&&######%%%%%%.......$$$$$$",
"%%%%%%      @@@@@@@******&&&&&&++++++%%%%%%%%%%%%%      ######@@@@@@@&&&&&&######%%%%%%.......$$$$$$",
"%%%%%%      @@@@@@@******&&&&&&++++++%%%%%%%%%%%%%      ######@@@@@@@&&&&&&######%%%%%%.......$$$$$$",
"%%%%%%      @@@@@@@******&&&&&&++++++%%%%%%%%%%%%%      ######@@@@@@@&&&&&&######%%%%%%.......$$$$$$",
"%%%%%%      @@@@@@@******&&&&&&++++++%%%%%%%%%%%%%      ######@@@@@@@&&&&&&######%%%%%%.......$$$$$$",
"            +++++++@@@@@@@@@@@@++++++                   $$$$$$+++++++@@@@@@######      .......$$$$$$",
"            +++++++@@@@@@@@@@@@++++++                   $$$$$$+++++++@@@@@@######      .......$$$$$$",
"            +++++++@@@@@@@@@@@@++++++                   $$$$$$+++++++@@@@@@######      .......$$$$$$",
"            +++++++@@@@@@@@@@@@++++++                   $$$$$$+++++++@@@@@@######      .......$$$$$$",
"            +++++++@@@@@@@@@@@@++++++                   $$$$$$+++++++@@@@@@######      .......$$$$$$",
"            +++++++@@@@@@@@@@@@++++++                   $$$$$$+++++++@@@@@@######      .......$$$$$$",
"............$$$$$$$++++++++++++######...................$$$$$$+++++++++++++$$$$$$.............$$$$$$",
"............$$$$$$$++++++++++++######...................$$$$$$+++++++++++++$$$$$$.............$$$$$$",
"............$$$$$$$++++++++++++######...................$$$$$$+++++++++++++$$$$$$.............$$$$$$",
"............$$$$$$$++++++++++++######...................$$$$$$+++++++++++++$$$$$$.............$$$$$$",
"............$$$$$$$++++++++++++######...................$$$$$$+++++++++++++$$$$$$.............$$$$$$",
"............$$$$$$$++++++++++++######...................$$$$$$+++++++++++++$$$$$$.............$$$$$$",
"============$$$$$$$++++++++++++######===================$$$$$$+++++++++++++$$$$$$......=======$$$$$$",
"============$$$$$$$++++++++++++######===================$$$$$$+++++++++++++$$$$$$......=======$$$$$$",
"============$$$$$$$++++++++++++######===================$$$$$$+++++++++++++$$$$$$......=======$$$$$$",
"============$$$$$$$++++++++++++######===================$$$$$$+++++++++++++$$$$$$......=======$$$$$$",
"============$$$$$$$++++++++++++######===================$$$$$$+++++++++++++$$$$$$......=======$$$$$$",
"============$$$$$$$++++++++++++######===================$$$$$$+++++++++++++$$$$$$......=======$$$$$$",
"============$$$$$$$++++++++++++######===================$$$$$$+++++++++++++$$$$$$......=======$$$$$$",
"============$$$$$$$@@@@@@@@@@@@######===================$$$$$$@@@@@@@@@@@@@$$$$$$......=======$$$$$$",
"============$$$$$$$@@@@@@@@@@@@######===================$$$$$$@@@@@@@@@@@@@$$$$$$......=======$$$$$$",
"============$$$$$$$@@@@@@@@@@@@######===================$$$$$$@@@@@@@@@@@@@$$$$$$......=======$$$$$$",
"============$$$$$$$@@@@@@@@@@@@######===================$$$$$$@@@@@@@@@@@@@$$$$$$......=======$$$$$$",
"============$$$$$$$@@@@@@@@@@@@######===================$$$$$$@@@@@@@@@@@@@$$$$$$......=======$$$$$$",
"============$$$$$$$@@@@@@@@@@@@######===================$$$$$$@@@@@@@@@@@@@$$$$$$......=======$$$$$$",
"$$$$$$$$$$$$$$$$$$$$$$$$$$$$$$$$$$$$$#############$$$$$$$$$$$$$$$$$$$$$$$$$$$$$$$$$$$$$$$$$$$$$$$$$$",
"$$$$$$$$$$$$$$$$$$$$$$$$$$$$$$$$$$$$$#############$$$$$$$$$$$$$$$$$$$$$$$$$$$$$$$$$$$$$$$$$$$$$$$$$$",
"$$$$$$$$$$$$$$$$$$$$$$$$$$$$$$$$$$$$$#############$$$$$$$$$$$$$$$$$$$$$$$$$$$$$$$$$$$$$$$$$$$$$$$$$$",
"$$$$$$$$$$$$$$$$$$$$$$$$$$$$$$$$$$$$$#############$$$$$$$$$$$$$$$$$$$$$$$$$$$$$$$$$$$$$$$$$$$$$$$$$$",
"$$$$$$$$$$$$$$$$$$$$$$$$$$$$$$$$$$$$$#############$$$$$$$$$$$$$$$$$$$$$$$$$$$$$$$$$$$$$$$$$$$$$$$$$$",
"$$$$$$$$$$$$$$$$$$$$$$$$$$$$$$$$$$$$$#############$$$$$$$$$$$$$$$$$$$$$$$$$$$$$$$$$$$$$$$$$$$$$$$$$$",
"------%%%%%%%%%%%%%%%%%%%%%%%%%%%%%%%%%%%%%%-------------------------------------******=======$$$$$$",
"------%%%%%%%%%%%%%%%%%%%%%%%%%%%%%%%%%%%%%%-------------------------------------******=======$$$$$$",
"------%%%%%%%%%%%%%%%%%%%%%%%%%%%%%%%%%%%%%%-------------------------------------******=======$$$$$$",
"------%%%%%%%%%%%%%%%%%%%%%%%%%%%%%%%%%%%%%%-------------------------------------******=======$$$$$$",
"------%%%%%%%%%%%%%%%%%%%%%%%%%%%%%%%%%%%%%%-------------------------------------******=======$$$$$$",
"------%%%%%%%%%%%%%%%%%%%%%%%%%%%%%%%%%%%%%%-------------------------------------******=======$$$$$$",
";;;;;;;;;;;;;;;;;;;;;;;;;;;;;;;;;;;;;;;;;;;;;;;;;;;;;;;;;;;;;;;;;;;;;;;;;;;;;;;;;;;;;;;;;;;;;;$$$$$$",
";;;;;;;;;;;;;;;;;;;;;;;;;;;;;;;;;;;;;;;;;;;;;;;;;;;;;;;;;;;;;;;;;;;;;;;;;;;;;;;;;;;;;;;;;;;;;;$$$$$$",
";;;;;;;;;;;;;;;;;;;;;;;;;;;;;;;;;;;;;;;;;;;;;;;;;;;;;;;;;;;;;;;;;;;;;;;;;;;;;;;;;;;;;;;;;;;;;;$$$$$$",
";;;;;;;;;;;;;;;;;;;;;;;;;;;;;;;;;;;;;;;;;;;;;;;;;;;;;;;;;;;;;;;;;;;;;;;;;;;;;;;;;;;;;;;;;;;;;;$$$$$$",
";;;;;;;;;;;;;;;;;;;;;;;;;;;;;;;;;;;;;;;;;;;;;;;;;;;;;;;;;;;;;;;;;;;;;;;;;;;;;;;;;;;;;;;;;;;;;;$$$$$$",
";;;;;;;;;;;;;;;;;;;;;;;;;;;;;;;;;;;;;;;;;;;;;;;;;;;;;;;;;;;;;;;;;;;;;;;;;;;;;;;;;;;;;;;;;;;;;;$$$$$$",
";;;;;;;;;;;;;;;;;;;;;;;;;;;;;;;;;;;;;;;;;;;;;;;;;;;;;;;;;;;;;;;;;;;;;;;;;;;;;;;;;;;;;;;;;;;;;;$$$$$$",
"$$$$$$$$$$$$$$$$$$$$$$$$$$$$$$$%%%%%%$$$$$$$$$$$$$$$$$$$      $$$$$$$$$$$$$$$$$$$+++++++++++++$$$$$$",
"$$$$$$$$$$$$$$$$$$$$$$$$$$$$$$$%%%%%%$$$$$$$$$$$$$$$$$$$      $$$$$$$$$$$$$$$$$$$+++++++++++++$$$$$$",
"$$$$$$$$$$$$$$$$$$$$$$$$$$$$$$$%%%%%%$$$$$$$$$$$$$$$$$$$      $$$$$$$$$$$$$$$$$$$+++++++++++++$$$$$$",
"$$$$$$$$$$$$$$$$$$$$$$$$$$$$$$$%%%%%%$$$$$$$$$$$$$$$$$$$      $$$$$$$$$$$$$$$$$$$+++++++++++++$$$$$$",
"$$$$$$$$$$$$$$$$$$$$$$$$$$$$$$$%%%%%%$$$$$$$$$$$$$$$$$$$      $$$$$$$$$$$$$$$$$$$+++++++++++++$$$$$$",
"$$$$$$$$$$$$$$$$$$$$$$$$$$$$$$$%%%%%%$$$$$$$$$$$$$$$$$$$      $$$$$$$$$$$$$$$$$$$+++++++++++++$$$$$$",
"......======$$$$$$$++++++++++++++++++.......      ......######+++++++++++++$$$$$$=============$$$$$$",
"......======$$$$$$$++++++++++++++++++.......      ......######+++++++++++++$$$$$$=============$$$$$$",
"......======$$$$$$$++++++++++++++++++.......      ......######+++++++++++++$$$$$$=============$$$$$$",
"......======$$$$$$$++++++++++++++++++.......      ......######+++++++++++++$$$$$$=============$$$$$$",
"......======$$$$$$$++++++++++++++++++.......      ......######+++++++++++++$$$$$$=============$$$$$$",
"......======$$$$$$$++++++++++++++++++.......      ......######+++++++++++++$$$$$$=============$$$$$$",
"      ......$$$$$$$++++++@@@@@@@@@@@@+++++++############+++++++++++++@@@@@@$$$$$$      .......$$$$$$",
"      ......$$$$$$$++++++@@@@@@@@@@@@+++++++############+++++++++++++@@@@@@$$$$$$      .......$$$$$$",
"      ......$$$$$$$++++++@@@@@@@@@@@@+++++++############+++++++++++++@@@@@@$$$$$$      .......$$$$$$",
"      ......$$$$$$$++++++@@@@@@@@@@@@+++++++############+++++++++++++@@@@@@$$$$$$      .......$$$$$$",
"      ......$$$$$$$++++++@@@@@@@@@@@@+++++++############+++++++++++++@@@@@@$$$$$$      .......$$$$$$",
"      ......$$$$$$$++++++@@@@@@@@@@@@+++++++############+++++++++++++@@@@@@$$$$$$      .......$$$$$$",
"            +++++++@@@@@@@@@@@@@@@@@@@@@@@@@++++++++++++++++++@@@@@@@@@@@@@$$$$$$      .......$$$$$$",
"            +++++++@@@@@@@@@@@@@@@@@@@@@@@@@++++++++++++++++++@@@@@@@@@@@@@$$$$$$      .......$$$$$$",
"            +++++++@@@@@@@@@@@@@@@@@@@@@@@@@++++++++++++++++++@@@@@@@@@@@@@$$$$$$      .......$$$$$$",
"            +++++++@@@@@@@@@@@@@@@@@@@@@@@@@++++++++++++++++++@@@@@@@@@@@@@$$$$$$      .......$$$$$$",
"            +++++++@@@@@@@@@@@@@@@@@@@@@@@@@++++++++++++++++++@@@@@@@@@@@@@$$$$$$      .......$$$$$$",
"            +++++++@@@@@@@@@@@@@@@@@@@@@@@@@++++++++++++++++++@@@@@@@@@@@@@$$$$$$      .......$$$$$$",
"            +++++++@@@@@@@@@@@@@@@@@@@@@@@@@++++++++++++++++++@@@@@@@@@@@@@$$$$$$      .......$$$$$$",
".......................................................................................;;;;;;;$$$$$$",
".......................................................................................;;;;;;;$$$$$$",
".......................................................................................;;;;;;;$$$$$$",
".......................................................................................;;;;;;;$$$$$$",
".......................................................................................;;;;;;;$$$$$$",
".......................................................................................;;;;;;;$$$$$$"};
