/* XPM */
static char * exit2_xpm[] = {
"100 100 11 1",
" 	c #F0F8D0",
".	c #E8E8B0",
"+	c #F8F8C0",
"@	c #483840",
"#	c #808050",
"$	c #806038",
"%	c #22170A",
"&	c #000000",
"*	c #4D381F",
"=	c #735632",
"-	c #45331B",
"      ............................................................................++++++@@@@@@######",
"      ............................................................................++++++@@@@@@######",
"      ............................................................................++++++@@@@@@######",
"      ............................................................................++++++@@@@@@######",
"      ............................................................................++++++@@@@@@######",
"      ............................................................................++++++@@@@@@######",
"      ............................................................................++++++@@@@@@######",
"      $$$$$$$$$$$$$$$$$$$$$$$$$$$$$$$$$$$$$$$$$$$$$$$$$$$$$$$$$$$$$$$$$$$$$$$$$$$$++++++@@@@@@######",
"      $$$$$$$$$$$$$$$$$$$$$$$$$$$$$$$$$$$$$$$$$$$$$$$$$$$$$$$$$$$$$$$$$$$$$$$$$$$$++++++@@@@@@######",
"      $$$$$$$$$$$$$$$$$$$$$$$$$$$$$$$$$$$$$$$$$$$$$$$$$$$$$$$$$$$$$$$$$$$$$$$$$$$$++++++@@@@@@######",
"      $$$$$$$$$$$$$$$$$$$$$$$$$$$$$$$$$$$$$$$$$$$$$$$$$$$$$$$$$$$$$$$$$$$$$$$$$$$$++++++@@@@@@######",
"      $$$$$$$$$$$$$$$$$$$$$$$$$$$$$$$$$$$$$$$$$$$$$$$$$$$$$$$$$$$$$$$$$$$$$$$$$$$$++++++@@@@@@######",
"      $$$$$$$$$$$$$$$$$$$$$$$$$$$$$$$$$$$$$$$$$$$$$$$$$$$$$$$$$$$$$$$$$$$$$$$$$$$$++++++@@@@@@######",
"      $$$$$$$$$$$$$$$$$$$$$$$$$$$$$$$$$$$$$$$$$$$$$$$$$$$$$$$$$$$$$$$$$$$$$$$$$$$$++++++@@@@@@######",
"      $$$$$$$$$$$$$$$$$$$$$$$$$$$$$$$$$$$$$$$$$$$$$$$$$$$$$$$$$$$$$$$$$$$$$$$$$$$$++++++@@@@@@######",
"      $$$$$$$$$$$$$$$$$$$$$$$$$$$$$$$$$$$$$$$$$$$$$$$$$$$$$$$$$$$$$$$$$$$$$$$$$$$$++++++@@@@@@######",
"      $$$$$$$$$$$$$$$$$$$$$$$$$$$$$$$$$$$$$$$$$$$$$$$$$$$$$$$$$$$$$$$$$$$$$$$$$$$$++++++@@@@@@######",
"      $$$$$$$$$$$$$$$$$$$$$$$$$$$$$$$$$$$$$$$$$$$$$$$$$$$$$$$$$$$$$$$$$$$$$$$$$$$$++++++@@@@@@######",
"      $$$$$$$$$$$$$$$$$$$$$$$$$$$$$$$$$$$$$$$$$$$$$$$$$$$$$$$$$$$$$$$$$$$$$$$$$$$$++++++@@@@@@######",
"      $$$$$$$$$$$$$$$$$$$$$$$$$$$$$$$$$$$$$$$$$$$$$$$$$$$$$$$$$$$$$$$$$$$$$$$$$$$$++++++@@@@@@######",
"      $$$$$$$$$$$$$$$$$$$$$$$$$$$$$$$$$$$$$$$$$$$$$$$$$$$$$$$$$$$$$$$$$$$$$$$$$$$$++++++@@@@@@######",
"      $$$$$$$$$$$$$$$$$$$$$$$$$$$$$$$$$$$$$$$$$$$$$$$$$$$$$$$$$$$$$$$$$$$$$$$$$$$$++++++@@@@@@######",
"      $$$$$$$$$$$$$$$$$$$$$$$$$$$$$$$$$$$$$$$$$$$$$$$$$$$$$$$$$$$$$$$$$$$$$$$$$$$$++++++@@@@@@######",
"      $$$$$$$$$$$$$$$$$$$$$$$$$$$$$$$$$$$$$$$$$$$$$$$$$$$$$$$$$$$$$$$$$$$$$$$$$$$$++++++@@@@@@######",
"      $$$$$$$$$$$$$$$$$$$$$$$$$$$$$$$$$$$$$$$$$$$$$$$$$$$$$$$$$$$$$$$$$$$$$$$$$$$$++++++@@@@@@######",
"      $$$$$$$$$$$$$$$$$$$$$$$$$$$$$$$$$$$$$$$$$$$$$$$$$$$$$$$$$$$$$$$$$$$$$$$$$$$$++++++@@@@@@######",
"      $$$$$$$$$$$$$$$$$$$$$$$$$$$$$$$$$$$$$$$$$$$$$$$$$$$$$$$$$$$$$$$$$$$$$$$$$$$$++++++@@@@@@######",
"      $$$$$$$$$$$$$$$$$$$$$$$$$$$$$$$$$$$$$$$$$$$$$$$$$$$$$$$$$$$$$$$$$$$$$$$$$$$$++++++@@@@@@######",
"      $$$$$$$$$$$$$$$$$$$$$$$$$$$$$$$$$$$$$$$$$$$$$$$$$$$$$$$$$$$$$$$$$$$$$$$$$$$$++++++@@@@@@######",
"      $$$$$$$$$$$$$$$$$$$$$$$%&&&&&&&&&&&&&&&&&&&&&&&&&&&*$$$$$$$$$$$$$$$$$$$$$$$$++++++@@@@@@######",
"      $$$$$$$$$$$$$$$$$$$$$$$%&&&&&&&&&&&&&&&&&&&&&&&&&&&*$$$$$$$$$$$$$$$$$$$$$$$$++++++@@@@@@######",
"      $$$$$$$$$$$$$$$$$$$$$$$%&&&&&&&&&&&&&&&&&&&&&&&&&&&*$$$$$$$$$$$$$$$$$$$$$$$$++++++@@@@@@######",
"      $$$$$$$$$$$$$$$$$$$$$$$%&&&&&&&&&&&&&&&&&&&&&&&&&&&*$$$$$$$$$$$$$$$$$$$$$$$$++++++@@@@@@######",
"      $$$$$$$$$$$$$$$$$$$$$$$%&&&&&&&&&&&&&&&&&&&&&&&&&&&*$$$$$$$$$$$$$$$$$$$$$$$$++++++@@@@@@######",
"      $$$$$$$$$$$$$$$$$$$$$$$%&&&&&=$$$$$$$$$$$$$$$$$$$$$$$$$$$$$$$$$$$$$$$$$$$$$$++++++@@@@@@######",
"      $$$$$$$$$$$$$$$$$$$$$$$%&&&&&=$$$$$$$$$$$$$$$$$$$$$$$$$$$$$$$$$$$$$$$$$$$$$$++++++@@@@@@######",
"      $$$$$$$$$$$$$$$$$$$$$$$%&&&&&=$$$$$$$$$$$$$$$$$$$$$$$$$$$$$$$$$$$$$$$$$$$$$$++++++@@@@@@######",
"      $$$$$$$$$$$$$$$$$$$$$$$%&&&&&=$$$$$$$$$$$$$$$$$$$$$$$$$$$$$$$$$$$$$$$$$$$$$$++++++@@@@@@######",
"      $$$$$$$$$$$$$$$$$$$$$$$%&&&&&=$$$$$$$$$$$$$$$$$$$$$$$$$$$$$$$$$$$$$$$$$$$$$$++++++@@@@@@######",
"      $$$$$$$$$$$$$$$$$$$$$$$%&&&&&=$$$$$$$$$$$$$$$$$$$$$$$$$$$$$$$$$$$$$$$$$$$$$$++++++@@@@@@######",
"      $$$$$$$$$$$$$$$$$$$$$$$%&&&&&=$$$$$$$$$$$$$$$$$$$$$$$$$$$$$$$$$$$$$$$$$$$$$$++++++@@@@@@######",
"      $$$$$$$$$$$$$$$$$$$$$$$%&&&&&=$$$$$$$$$$$$$$$$$$$$$$$$$$$$$$$$$$$$$$$$$$$$$$++++++@@@@@@######",
"      $$$$$$$$$$$$$$$$$$$$$$$%&&&&&=$$$$$$$$$$$$$$$$$$$$$$$$$$$$$$$$$$$$$$$$$$$$$$++++++@@@@@@######",
"      $$$$$$$$$$$$$$$$$$$$$$$%&&&&&=$$$$$$$$$$$$$$$$$$$$$$$$$$$$$$$$$$$$$$$$$$$$$$++++++@@@@@@######",
"      $$$$$$$$$$$$$$$$$$$$$$$%&&&&&=$$$$$$$$$$$$$$$$$$$$$$$$$$$$$$$$$$$$$$$$$$$$$$++++++@@@@@@######",
"      $$$$$$$$$$$$$$$$$$$$$$$%&&&&&=$$$$$$$$$$$$$$$$$$$$$$$$$$$$$$$$$$$$$$$$$$$$$$++++++@@@@@@######",
"      $$$$$$$$$$$$$$$$$$$$$$$%&&&&&=$$$$$$$$$$$$$$$$$$$$$$$$$$$$$$$$$$$$$$$$$$$$$$++++++@@@@@@######",
"      $$$$$$$$$$$$$$$$$$$$$$$%&&&&&&&&&&&&&&&&&&&&&&&&&&-$$$$$$$$$$$$$$$$$$$$$$$$$++++++@@@@@@######",
"      $$$$$$$$$$$$$$$$$$$$$$$%&&&&&&&&&&&&&&&&&&&&&&&&&&-$$$$$$$$$$$$$$$$$$$$$$$$$++++++@@@@@@######",
"      $$$$$$$$$$$$$$$$$$$$$$$%&&&&&&&&&&&&&&&&&&&&&&&&&&-$$$$$$$$$$$$$$$$$$$$$$$$$++++++@@@@@@######",
"      $$$$$$$$$$$$$$$$$$$$$$$%&&&&&&&&&&&&&&&&&&&&&&&&&&-$$$$$$$$$$$$$$$$$$$$$$$$$++++++@@@@@@######",
"      $$$$$$$$$$$$$$$$$$$$$$$%&&&&&&&&&&&&&&&&&&&&&&&&&&-$$$$$$$$$$$$$$$$$$$$$$$$$++++++@@@@@@######",
"      $$$$$$$$$$$$$$$$$$$$$$$%&&&&&=$$$$$$$$$$$$$$$$$$$$$$$$$$$$$$$$$$$$$$$$$$$$$$++++++@@@@@@######",
"      $$$$$$$$$$$$$$$$$$$$$$$%&&&&&=$$$$$$$$$$$$$$$$$$$$$$$$$$$$$$$$$$$$$$$$$$$$$$++++++@@@@@@######",
"      $$$$$$$$$$$$$$$$$$$$$$$%&&&&&=$$$$$$$$$$$$$$$$$$$$$$$$$$$$$$$$$$$$$$$$$$$$$$++++++@@@@@@######",
"      $$$$$$$$$$$$$$$$$$$$$$$%&&&&&=$$$$$$$$$$$$$$$$$$$$$$$$$$$$$$$$$$$$$$$$$$$$$$++++++@@@@@@######",
"      $$$$$$$$$$$$$$$$$$$$$$$%&&&&&=$$$$$$$$$$$$$$$$$$$$$$$$$$$$$$$$$$$$$$$$$$$$$$++++++@@@@@@######",
"      $$$$$$$$$$$$$$$$$$$$$$$%&&&&&=$$$$$$$$$$$$$$$$$$$$$$$$$$$$$$$$$$$$$$$$$$$$$$++++++@@@@@@######",
"      $$$$$$$$$$$$$$$$$$$$$$$%&&&&&=$$$$$$$$$$$$$$$$$$$$$$$$$$$$$$$$$$$$$$$$$$$$$$++++++@@@@@@######",
"      $$$$$$$$$$$$$$$$$$$$$$$%&&&&&=$$$$$$$$$$$$$$$$$$$$$$$$$$$$$$$$$$$$$$$$$$$$$$++++++@@@@@@######",
"      $$$$$$$$$$$$$$$$$$$$$$$%&&&&&=$$$$$$$$$$$$$$$$$$$$$$$$$$$$$$$$$$$$$$$$$$$$$$++++++@@@@@@######",
"      $$$$$$$$$$$$$$$$$$$$$$$%&&&&&=$$$$$$$$$$$$$$$$$$$$$$$$$$$$$$$$$$$$$$$$$$$$$$++++++@@@@@@######",
"      $$$$$$$$$$$$$$$$$$$$$$$%&&&&&=$$$$$$$$$$$$$$$$$$$$$$$$$$$$$$$$$$$$$$$$$$$$$$++++++@@@@@@######",
"      $$$$$$$$$$$$$$$$$$$$$$$%&&&&&=$$$$$$$$$$$$$$$$$$$$$$$$$$$$$$$$$$$$$$$$$$$$$$++++++@@@@@@######",
"      $$$$$$$$$$$$$$$$$$$$$$$%&&&&&=$$$$$$$$$$$$$$$$$$$$$$$$$$$$$$$$$$$$$$$$$$$$$$++++++@@@@@@######",
"      $$$$$$$$$$$$$$$$$$$$$$$%&&&&&=$$$$$$$$$$$$$$$$$$$$$$$$$$$$$$$$$$$$$$$$$$$$$$++++++@@@@@@######",
"      $$$$$$$$$$$$$$$$$$$$$$$%&&&&&=$$$$$$$$$$$$$$$$$$$$$$$$$$$$$$$$$$$$$$$$$$$$$$++++++@@@@@@######",
"      $$$$$$$$$$$$$$$$$$$$$$$%&&&&&=$$$$$$$$$$$$$$$$$$$$$$$$$$$$$$$$$$$$$$$$$$$$$$++++++@@@@@@######",
"      $$$$$$$$$$$$$$$$$$$$$$$%&&&&&=$$$$$$$$$$$$$$$$$$$$$$$$$$$$$$$$$$$$$$$$$$$$$$++++++@@@@@@######",
"      $$$$$$$$$$$$$$$$$$$$$$$%&&&&&&&&&&&&&&&&&&&&&&&&&&&&$$$$$$$$$$$$$$$$$$$$$$$$++++++@@@@@@######",
"      $$$$$$$$$$$$$$$$$$$$$$$%&&&&&&&&&&&&&&&&&&&&&&&&&&&&$$$$$$$$$$$$$$$$$$$$$$$$++++++@@@@@@######",
"      $$$$$$$$$$$$$$$$$$$$$$$%&&&&&&&&&&&&&&&&&&&&&&&&&&&&$$$$$$$$$$$$$$$$$$$$$$$$++++++@@@@@@######",
"      $$$$$$$$$$$$$$$$$$$$$$$%&&&&&&&&&&&&&&&&&&&&&&&&&&&&$$$$$$$$$$$$$$$$$$$$$$$$++++++@@@@@@######",
"      $$$$$$$$$$$$$$$$$$$$$$$$$$$$$$$$$$$$$$$$$$$$$$$$$$$$$$$$$$$$$$$$$$$$$$$$$$$$++++++@@@@@@######",
"      $$$$$$$$$$$$$$$$$$$$$$$$$$$$$$$$$$$$$$$$$$$$$$$$$$$$$$$$$$$$$$$$$$$$$$$$$$$$++++++@@@@@@######",
"      $$$$$$$$$$$$$$$$$$$$$$$$$$$$$$$$$$$$$$$$$$$$$$$$$$$$$$$$$$$$$$$$$$$$$$$$$$$$++++++@@@@@@######",
"      $$$$$$$$$$$$$$$$$$$$$$$$$$$$$$$$$$$$$$$$$$$$$$$$$$$$$$$$$$$$$$$$$$$$$$$$$$$$++++++@@@@@@######",
"      $$$$$$$$$$$$$$$$$$$$$$$$$$$$$$$$$$$$$$$$$$$$$$$$$$$$$$$$$$$$$$$$$$$$$$$$$$$$++++++@@@@@@######",
"      $$$$$$$$$$$$$$$$$$$$$$$$$$$$$$$$$$$$$$$$$$$$$$$$$$$$$$$$$$$$$$$$$$$$$$$$$$$$++++++@@@@@@######",
"      $$$$$$$$$$$$$$$$$$$$$$$$$$$$$$$$$$$$$$$$$$$$$$$$$$$$$$$$$$$$$$$$$$$$$$$$$$$$++++++@@@@@@######",
"      $$$$$$$$$$$$$$$$$$$$$$$$$$$$$$$$$$$$$$$$$$$$$$$$$$$$$$$$$$$$$$$$$$$$$$$$$$$$++++++@@@@@@######",
"      $$$$$$$$$$$$$$$$$$$$$$$$$$$$$$$$$$$$$$$$$$$$$$$$$$$$$$$$$$$$$$$$$$$$$$$$$$$$++++++@@@@@@######",
"      $$$$$$$$$$$$$$$$$$$$$$$$$$$$$$$$$$$$$$$$$$$$$$$$$$$$$$$$$$$$$$$$$$$$$$$$$$$$++++++@@@@@@######",
"      $$$$$$$$$$$$$$$$$$$$$$$$$$$$$$$$$$$$$$$$$$$$$$$$$$$$$$$$$$$$$$$$$$$$$$$$$$$$++++++@@@@@@######",
"      $$$$$$$$$$$$$$$$$$$$$$$$$$$$$$$$$$$$$$$$$$$$$$$$$$$$$$$$$$$$$$$$$$$$$$$$$$$$++++++@@@@@@######",
"      $$$$$$$$$$$$$$$$$$$$$$$$$$$$$$$$$$$$$$$$$$$$$$$$$$$$$$$$$$$$$$$$$$$$$$$$$$$$++++++@@@@@@######",
"      $$$$$$$$$$$$$$$$$$$$$$$$$$$$$$$$$$$$$$$$$$$$$$$$$$$$$$$$$$$$$$$$$$$$$$$$$$$$++++++@@@@@@######",
"      $$$$$$$$$$$$$$$$$$$$$$$$$$$$$$$$$$$$$$$$$$$$$$$$$$$$$$$$$$$$$$$$$$$$$$$$$$$$++++++@@@@@@######",
"      $$$$$$$$$$$$$$$$$$$$$$$$$$$$$$$$$$$$$$$$$$$$$$$$$$$$$$$$$$$$$$$$$$$$$$$$$$$$++++++@@@@@@######",
"      $$$$$$$$$$$$$$$$$$$$$$$$$$$$$$$$$$$$$$$$$$$$$$$$$$$$$$$$$$$$$$$$$$$$$$$$$$$$++++++@@@@@@######",
"      $$$$$$$$$$$$$$$$$$$$$$$$$$$$$$$$$$$$$$$$$$$$$$$$$$$$$$$$$$$$$$$$$$$$$$$$$$$$++++++@@@@@@######",
"      $$$$$$$$$$$$$$$$$$$$$$$$$$$$$$$$$$$$$$$$$$$$$$$$$$$$$$$$$$$$$$$$$$$$$$$$$$$$++++++@@@@@@######",
"      $$$$$$$$$$$$$$$$$$$$$$$$$$$$$$$$$$$$$$$$$$$$$$$$$$$$$$$$$$$$$$$$$$$$$$$$$$$$++++++@@@@@@######",
"..................................................................................++++++@@@@@@######",
"..................................................................................++++++@@@@@@######",
"..................................................................................++++++@@@@@@######",
"..................................................................................++++++@@@@@@######",
"..................................................................................++++++@@@@@@######",
"..................................................................................++++++@@@@@@######",
"..................................................................................++++++@@@@@@######"};
