/* XPM */
static char * exit_xpm[] = {
"100 100 8 1",
" 	c #F0F8D0",
".	c #E8E8B0",
"+	c #F8F8C0",
"@	c #483840",
"#	c #808050",
"$	c #806038",
"%	c #B09058",
"&	c #E0D870",
"      ............................................................................++++++@@@@@@######",
"      ............................................................................++++++@@@@@@######",
"      ............................................................................++++++@@@@@@######",
"      ............................................................................++++++@@@@@@######",
"      ............................................................................++++++@@@@@@######",
"      ............................................................................++++++@@@@@@######",
"      ............................................................................++++++@@@@@@######",
"      $$$$$$%%%%%%%%%%%%%%%%%%%%%%%$$$$$$$$$$$$$$$$$$$$$$$$$$$$$$$$$$$$$$$$$$$$$$$++++++@@@@@@######",
"      $$$$$$%%%%%%%%%%%%%%%%%%%%%%%$$$$$$$$$$$$$$$$$$$$$$$$$$$$$$$$$$$$$$$$$$$$$$$++++++@@@@@@######",
"      $$$$$$%%%%%%%%%%%%%%%%%%%%%%%$$$$$$$$$$$$$$$$$$$$$$$$$$$$$$$$$$$$$$$$$$$$$$$++++++@@@@@@######",
"      $$$$$$%%%%%%%%%%%%%%%%%%%%%%%$$$$$$$$$$$$$$$$$$$$$$$$$$$$$$$$$$$$$$$$$$$$$$$++++++@@@@@@######",
"      $$$$$$%%%%%%%%%%%%%%%%%%%%%%%$$$$$$$$$$$$$$$$$$$$$$$$$$$$$$$$$$$$$$$$$$$$$$$++++++@@@@@@######",
"      $$$$$$%%%%%%%%%%%%%%%%%%%%%%%$$$$$$$$$$$$$$$$$$$$$$$$$$$$$$$$$$$$$$$$$$$$$$$++++++@@@@@@######",
"      $$$$$$%%%%%%&&&&&&&&&&&&&&&&&$$$$$$@@@@@@@@@@@@@@@@@@@@@@@@@@@@@@@@@@@@@@@@@++++++@@@@@@######",
"      $$$$$$%%%%%%&&&&&&&&&&&&&&&&&$$$$$$@@@@@@@@@@@@@@@@@@@@@@@@@@@@@@@@@@@@@@@@@++++++@@@@@@######",
"      $$$$$$%%%%%%&&&&&&&&&&&&&&&&&$$$$$$@@@@@@@@@@@@@@@@@@@@@@@@@@@@@@@@@@@@@@@@@++++++@@@@@@######",
"      $$$$$$%%%%%%&&&&&&&&&&&&&&&&&$$$$$$@@@@@@@@@@@@@@@@@@@@@@@@@@@@@@@@@@@@@@@@@++++++@@@@@@######",
"      $$$$$$%%%%%%&&&&&&&&&&&&&&&&&$$$$$$@@@@@@@@@@@@@@@@@@@@@@@@@@@@@@@@@@@@@@@@@++++++@@@@@@######",
"      $$$$$$%%%%%%&&&&&&&&&&&&&&&&&$$$$$$@@@@@@@@@@@@@@@@@@@@@@@@@@@@@@@@@@@@@@@@@++++++@@@@@@######",
"      $$$$$$%%%%%%&&&&&&&&&&&&&&&&&$$$$$$@@@@@@@@@@@@@@@@@@@@@@@@@@@@@@@@@@@@@@@@@++++++@@@@@@######",
"      $$$$$$&&&&&&&&&&&&+++++++++++$$$$$$@@@@@@@@@@@@@@@@@@@@@@@@@@@@@@@@@@@@@@@@@++++++@@@@@@######",
"      $$$$$$&&&&&&&&&&&&+++++++++++$$$$$$@@@@@@@@@@@@@@@@@@@@@@@@@@@@@@@@@@@@@@@@@++++++@@@@@@######",
"      $$$$$$&&&&&&&&&&&&+++++++++++$$$$$$@@@@@@@@@@@@@@@@@@@@@@@@@@@@@@@@@@@@@@@@@++++++@@@@@@######",
"      $$$$$$&&&&&&&&&&&&+++++++++++$$$$$$@@@@@@@@@@@@@@@@@@@@@@@@@@@@@@@@@@@@@@@@@++++++@@@@@@######",
"      $$$$$$&&&&&&&&&&&&+++++++++++$$$$$$@@@@@@@@@@@@@@@@@@@@@@@@@@@@@@@@@@@@@@@@@++++++@@@@@@######",
"      $$$$$$&&&&&&&&&&&&+++++++++++$$$$$$@@@@@@@@@@@@@@@@@@@@@@@@@@@@@@@@@@@@@@@@@++++++@@@@@@######",
"      $$$$$$&&&&&&&&&&&&+++++++++++$$$$$$@@@@@@@@@@@@@@@@@@@@@@@@@@@@@@@@@@@@@@@@@++++++@@@@@@######",
"      $$$$$$&&&&&&++++++...........$$$$$$@@@@@@@@@@@@@@@@@@@@@@@@@@@@@@@@@@@@@@@@@++++++@@@@@@######",
"      $$$$$$&&&&&&++++++...........$$$$$$@@@@@@@@@@@@@@@@@@@@@@@@@@@@@@@@@@@@@@@@@++++++@@@@@@######",
"      $$$$$$&&&&&&++++++...........$$$$$$@@@@@@@@@@@@@@@@@@@@@@@@@@@@@@@@@@@@@@@@@++++++@@@@@@######",
"      $$$$$$&&&&&&++++++...........$$$$$$@@@@@@@@@@@@@@@@@@@@@@@@@@@@@@@@@@@@@@@@@++++++@@@@@@######",
"      $$$$$$&&&&&&++++++...........$$$$$$@@@@@@@@@@@@@@@@@@@@@@@@@@@@@@@@@@@@@@@@@++++++@@@@@@######",
"      $$$$$$&&&&&&++++++...........$$$$$$@@@@@@@@@@@@@@@@@@@@@@@@@@@@@@@@@@@@@@@@@++++++@@@@@@######",
"      $$$$$$&&&&&&++++++...........$$$$$$%%%%%%%%%%%%%%%%%%$$$$$$@@@@@@@@@@@@@@@@@++++++@@@@@@######",
"      $$$$$$&&&&&&++++++...........$$$$$$%%%%%%%%%%%%%%%%%%$$$$$$@@@@@@@@@@@@@@@@@++++++@@@@@@######",
"      $$$$$$&&&&&&++++++...........$$$$$$%%%%%%%%%%%%%%%%%%$$$$$$@@@@@@@@@@@@@@@@@++++++@@@@@@######",
"      $$$$$$&&&&&&++++++...........$$$$$$%%%%%%%%%%%%%%%%%%$$$$$$@@@@@@@@@@@@@@@@@++++++@@@@@@######",
"      $$$$$$&&&&&&++++++...........$$$$$$%%%%%%%%%%%%%%%%%%$$$$$$@@@@@@@@@@@@@@@@@++++++@@@@@@######",
"      $$$$$$&&&&&&++++++...........$$$$$$%%%%%%%%%%%%%%%%%%$$$$$$@@@@@@@@@@@@@@@@@++++++@@@@@@######",
"      $$$$$$&&&&&&++++++...........$$$$$$%%%%%%%%%%%%%%%%%%$$$$$$@@@@@@@@@@@@@@@@@++++++@@@@@@######",
"      $$$$$$&&&&&&++++++...........$$$$$$%%%%%%&&&&&&&&&&&&$$$$$$@@@@@@@@@@@@@@@@@++++++@@@@@@######",
"      $$$$$$&&&&&&++++++...........$$$$$$%%%%%%&&&&&&&&&&&&$$$$$$@@@@@@@@@@@@@@@@@++++++@@@@@@######",
"      $$$$$$&&&&&&++++++...........$$$$$$%%%%%%&&&&&&&&&&&&$$$$$$@@@@@@@@@@@@@@@@@++++++@@@@@@######",
"      $$$$$$&&&&&&++++++...........$$$$$$%%%%%%&&&&&&&&&&&&$$$$$$@@@@@@@@@@@@@@@@@++++++@@@@@@######",
"      $$$$$$&&&&&&++++++...........$$$$$$%%%%%%&&&&&&&&&&&&$$$$$$@@@@@@@@@@@@@@@@@++++++@@@@@@######",
"      $$$$$$&&&&&&++++++...........$$$$$$%%%%%%&&&&&&&&&&&&$$$$$$@@@@@@@@@@@@@@@@@++++++@@@@@@######",
"      $$$$$$&&&&&&++++++...........$$$$$$%%%%%%&&&&&&&&&&&&$$$$$$@@@@@@@@@@@@@@@@@++++++@@@@@@######",
"      $$$$$$&&&&&&++++++...........$$$$$$%%%%%%&&&&&&++++++$$$$$$@@@@@@@@@@@@@@@@@++++++@@@@@@######",
"      $$$$$$&&&&&&++++++...........$$$$$$%%%%%%&&&&&&++++++$$$$$$@@@@@@@@@@@@@@@@@++++++@@@@@@######",
"      $$$$$$&&&&&&++++++...........$$$$$$%%%%%%&&&&&&++++++$$$$$$@@@@@@@@@@@@@@@@@++++++@@@@@@######",
"      $$$$$$&&&&&&++++++...........$$$$$$%%%%%%&&&&&&++++++$$$$$$@@@@@@@@@@@@@@@@@++++++@@@@@@######",
"      $$$$$$&&&&&&++++++...........$$$$$$%%%%%%&&&&&&++++++$$$$$$@@@@@@@@@@@@@@@@@++++++@@@@@@######",
"      $$$$$$&&&&&&++++++...........$$$$$$%%%%%%&&&&&&++++++$$$$$$@@@@@@@@@@@@@@@@@++++++@@@@@@######",
"      $$$$$$&&&&&&+++++++++++......$$$$$$%%%%%%&&&&&&++++++$$$$$$@@@@@@@@@@@@@@@@@++++++@@@@@@######",
"      $$$$$$&&&&&&+++++++++++......$$$$$$%%%%%%&&&&&&++++++$$$$$$@@@@@@@@@@@@@@@@@++++++@@@@@@######",
"      $$$$$$&&&&&&+++++++++++......$$$$$$%%%%%%&&&&&&++++++$$$$$$@@@@@@@@@@@@@@@@@++++++@@@@@@######",
"      $$$$$$&&&&&&+++++++++++......$$$$$$%%%%%%&&&&&&++++++$$$$$$@@@@@@@@@@@@@@@@@++++++@@@@@@######",
"      $$$$$$&&&&&&+++++++++++......$$$$$$%%%%%%&&&&&&++++++$$$$$$@@@@@@@@@@@@@@@@@++++++@@@@@@######",
"      $$$$$$&&&&&&+++++++++++......$$$$$$%%%%%%&&&&&&++++++$$$$$$@@@@@@@@@@@@@@@@@++++++@@@@@@######",
"      $$$$$$&&&&&&+++++++++++......$$$$$$%%%%%%&&&&&&++++++$$$$$$@@@@@@@@@@@@@@@@@++++++@@@@@@######",
"      $$$$$$&&&&&&+++++++++++......$$$$$$%%%%%%&&&&&&++++++$$$$$$&&&&&&%%%%%@@@@@@++++++@@@@@@######",
"      $$$$$$&&&&&&+++++++++++......$$$$$$%%%%%%&&&&&&++++++$$$$$$&&&&&&%%%%%@@@@@@++++++@@@@@@######",
"      $$$$$$&&&&&&+++++++++++......$$$$$$%%%%%%&&&&&&++++++$$$$$$&&&&&&%%%%%@@@@@@++++++@@@@@@######",
"      $$$$$$&&&&&&+++++++++++......$$$$$$%%%%%%&&&&&&++++++$$$$$$&&&&&&%%%%%@@@@@@++++++@@@@@@######",
"      $$$$$$&&&&&&+++++++++++......$$$$$$%%%%%%&&&&&&++++++$$$$$$&&&&&&%%%%%@@@@@@++++++@@@@@@######",
"      $$$$$$&&&&&&+++++++++++......$$$$$$%%%%%%&&&&&&++++++$$$$$$&&&&&&%%%%%@@@@@@++++++@@@@@@######",
"      $$$$$$&&&&&&+++++++++++......$$$$$$%%%%%%&&&&&&++++++$$$$$$&&&&&&%%%%%@@@@@@++++++@@@@@@######",
"      $$$$$$&&&&&&+++++++++++......$$$$$$%%%%%%&&&&&&++++++$$$$$$&&&&&&%%%%%@@@@@@++++++@@@@@@######",
"      $$$$$$&&&&&&+++++++++++......$$$$$$%%%%%%&&&&&&++++++$$$$$$&&&&&&%%%%%@@@@@@++++++@@@@@@######",
"      $$$$$$&&&&&&+++++++++++......$$$$$$%%%%%%&&&&&&++++++$$$$$$&&&&&&%%%%%@@@@@@++++++@@@@@@######",
"      $$$$$$&&&&&&+++++++++++......$$$$$$%%%%%%&&&&&&++++++$$$$$$&&&&&&%%%%%@@@@@@++++++@@@@@@######",
"      $$$$$$&&&&&&+++++++++++......$$$$$$%%%%%%&&&&&&++++++$$$$$$&&&&&&%%%%%@@@@@@++++++@@@@@@######",
"      $$$$$$&&&&&&+++++++++++......$$$$$$%%%%%%&&&&&&++++++$$$$$$&&&&&&%%%%%@@@@@@++++++@@@@@@######",
"      $$$$$$&&&&&&+++++++++++......$$$$$$%%%%%%&&&&&&++++++$$$$$$&&&&&&%%%%%@@@@@@++++++@@@@@@######",
"      $$$$$$&&&&&&+++++++++++......$$$$$$%%%%%%&&&&&&++++++$$$$$$&&&&&&%%%%%@@@@@@++++++@@@@@@######",
"      $$$$$$&&&&&&+++++++++++......$$$$$$%%%%%%&&&&&&++++++$$$$$$&&&&&&%%%%%@@@@@@++++++@@@@@@######",
"      $$$$$$&&&&&&+++++++++++......$$$$$$%%%%%%&&&&&&++++++$$$$$$&&&&&&%%%%%@@@@@@++++++@@@@@@######",
"      $$$$$$&&&&&&+++++++++++......$$$$$$%%%%%%&&&&&&++++++$$$$$$&&&&&&%%%%%@@@@@@++++++@@@@@@######",
"      $$$$$$&&&&&&+++++++++++......$$$$$$%%%%%%&&&&&&++++++$$$$$$&&&&&&%%%%%@@@@@@++++++@@@@@@######",
"      $$$$$$&&&&&&+++++++++++......$$$$$$%%%%%%&&&&&&++++++$$$$$$&&&&&&%%%%%@@@@@@++++++@@@@@@######",
"      $$$$$$&&&&&&&&&&&&+++++++++++$$$$$$%%%%%%&&&&&&&&&&&&$$$$$$%%%%%%%%%%%@@@@@@++++++@@@@@@######",
"      $$$$$$&&&&&&&&&&&&+++++++++++$$$$$$%%%%%%&&&&&&&&&&&&$$$$$$%%%%%%%%%%%@@@@@@++++++@@@@@@######",
"      $$$$$$&&&&&&&&&&&&+++++++++++$$$$$$%%%%%%&&&&&&&&&&&&$$$$$$%%%%%%%%%%%@@@@@@++++++@@@@@@######",
"      $$$$$$&&&&&&&&&&&&+++++++++++$$$$$$%%%%%%&&&&&&&&&&&&$$$$$$%%%%%%%%%%%@@@@@@++++++@@@@@@######",
"      $$$$$$&&&&&&&&&&&&+++++++++++$$$$$$%%%%%%&&&&&&&&&&&&$$$$$$%%%%%%%%%%%@@@@@@++++++@@@@@@######",
"      $$$$$$&&&&&&&&&&&&+++++++++++$$$$$$%%%%%%&&&&&&&&&&&&$$$$$$%%%%%%%%%%%@@@@@@++++++@@@@@@######",
"      $$$$$$&&&&&&&&&&&&+++++++++++$$$$$$%%%%%%&&&&&&&&&&&&$$$$$$%%%%%%%%%%%@@@@@@++++++@@@@@@######",
"      $$$$$$%%%%%%&&&&&&&&&&&++++++$$$$$$%%%%%%&&&&&&&&&&&&$$$$$$%%%%%%%%%%%@@@@@@++++++@@@@@@######",
"      $$$$$$%%%%%%&&&&&&&&&&&++++++$$$$$$%%%%%%&&&&&&&&&&&&$$$$$$%%%%%%%%%%%@@@@@@++++++@@@@@@######",
"      $$$$$$%%%%%%&&&&&&&&&&&++++++$$$$$$%%%%%%&&&&&&&&&&&&$$$$$$%%%%%%%%%%%@@@@@@++++++@@@@@@######",
"      $$$$$$%%%%%%&&&&&&&&&&&++++++$$$$$$%%%%%%&&&&&&&&&&&&$$$$$$%%%%%%%%%%%@@@@@@++++++@@@@@@######",
"      $$$$$$%%%%%%&&&&&&&&&&&++++++$$$$$$%%%%%%&&&&&&&&&&&&$$$$$$%%%%%%%%%%%@@@@@@++++++@@@@@@######",
"      $$$$$$%%%%%%&&&&&&&&&&&++++++$$$$$$%%%%%%&&&&&&&&&&&&$$$$$$%%%%%%%%%%%@@@@@@++++++@@@@@@######",
"..................................................................................++++++@@@@@@######",
"..................................................................................++++++@@@@@@######",
"..................................................................................++++++@@@@@@######",
"..................................................................................++++++@@@@@@######",
"..................................................................................++++++@@@@@@######",
"..................................................................................++++++@@@@@@######",
"..................................................................................++++++@@@@@@######"};
