/* XPM */
static char * porte_xpm[] = {
"100 100 10 1",
" 	c #A0A048",
".	c #F0F8A8",
"+	c #D0D890",
"@	c #F8F8D0",
"#	c #D8E078",
"$	c #E0E878",
"%	c #887830",
"&	c #D0C868",
"*	c #C8D078",
"=	c #585848",
"      .......+++++++++++++++++++++++++@@@@@@######@@@@@@$$$$$$$$$$$$$@@@@@@######%%%%%%%&&&&&&      ",
"      .......+++++++++++++++++++++++++@@@@@@######@@@@@@$$$$$$$$$$$$$@@@@@@######%%%%%%%&&&&&&      ",
"      .......+++++++++++++++++++++++++@@@@@@######@@@@@@$$$$$$$$$$$$$@@@@@@######%%%%%%%&&&&&&      ",
"      .......+++++++++++++++++++++++++@@@@@@######@@@@@@$$$$$$$$$$$$$@@@@@@######%%%%%%%&&&&&&      ",
"      .......+++++++++++++++++++++++++@@@@@@######@@@@@@$$$$$$$$$$$$$@@@@@@######%%%%%%%&&&&&&      ",
"      .......+++++++++++++++++++++++++@@@@@@######@@@@@@$$$$$$$$$$$$$@@@@@@######%%%%%%%&&&&&&      ",
"######$$$$$$$++++++++++++@@@@@@@@@@@@@@@@@@@******$$$$$$@@@@@@@@@@@@@......######       %%%%%%      ",
"######$$$$$$$++++++++++++@@@@@@@@@@@@@@@@@@@******$$$$$$@@@@@@@@@@@@@......######       %%%%%%      ",
"######$$$$$$$++++++++++++@@@@@@@@@@@@@@@@@@@******$$$$$$@@@@@@@@@@@@@......######       %%%%%%      ",
"######$$$$$$$++++++++++++@@@@@@@@@@@@@@@@@@@******$$$$$$@@@@@@@@@@@@@......######       %%%%%%      ",
"######$$$$$$$++++++++++++@@@@@@@@@@@@@@@@@@@******$$$$$$@@@@@@@@@@@@@......######       %%%%%%      ",
"######$$$$$$$++++++++++++@@@@@@@@@@@@@@@@@@@******$$$$$$@@@@@@@@@@@@@......######       %%%%%%      ",
"######$$$$$$$++++++++++++@@@@@@@@@@@@@@@@@@@******$$$$$$@@@@@@@@@@@@@......######       %%%%%%      ",
"######$$$$$$$++++++++++++@@@@@@@@@@@@@@@@@@@&&&&&&$$$$$$@@@@@@@............######&&&&&&&%%%%%%      ",
"######$$$$$$$++++++++++++@@@@@@@@@@@@@@@@@@@&&&&&&$$$$$$@@@@@@@............######&&&&&&&%%%%%%      ",
"######$$$$$$$++++++++++++@@@@@@@@@@@@@@@@@@@&&&&&&$$$$$$@@@@@@@............######&&&&&&&%%%%%%      ",
"######$$$$$$$++++++++++++@@@@@@@@@@@@@@@@@@@&&&&&&$$$$$$@@@@@@@............######&&&&&&&%%%%%%      ",
"######$$$$$$$++++++++++++@@@@@@@@@@@@@@@@@@@&&&&&&$$$$$$@@@@@@@............######&&&&&&&%%%%%%      ",
"######$$$$$$$++++++++++++@@@@@@@@@@@@@@@@@@@&&&&&&$$$$$$@@@@@@@............######&&&&&&&%%%%%%      ",
"######             &&&&&&&&&&&&&&&&&&&&&&&&&======&&&&&&&&&&&&&&&&&&&      ======       %%%%%%      ",
"######             &&&&&&&&&&&&&&&&&&&&&&&&&======&&&&&&&&&&&&&&&&&&&      ======       %%%%%%      ",
"######             &&&&&&&&&&&&&&&&&&&&&&&&&======&&&&&&&&&&&&&&&&&&&      ======       %%%%%%      ",
"######             &&&&&&&&&&&&&&&&&&&&&&&&&======&&&&&&&&&&&&&&&&&&&      ======       %%%%%%      ",
"######             &&&&&&&&&&&&&&&&&&&&&&&&&======&&&&&&&&&&&&&&&&&&&      ======       %%%%%%      ",
"######             &&&&&&&&&&&&&&&&&&&&&&&&&======&&&&&&&&&&&&&&&&&&&      ======       %%%%%%      ",
"######       ######......@@@@@@@@@@@@@......======......@@@@@@@@@@@@@............=======%%%%%%      ",
"######       ######......@@@@@@@@@@@@@......======......@@@@@@@@@@@@@............=======%%%%%%      ",
"######       ######......@@@@@@@@@@@@@......======......@@@@@@@@@@@@@............=======%%%%%%      ",
"######       ######......@@@@@@@@@@@@@......======......@@@@@@@@@@@@@............=======%%%%%%      ",
"######       ######......@@@@@@@@@@@@@......======......@@@@@@@@@@@@@............=======%%%%%%      ",
"######       ######......@@@@@@@@@@@@@......======......@@@@@@@@@@@@@............=======%%%%%%      ",
"######       ######      &&&&&&       &&&&&&======&&&&&&%%%%%%%&&&&&&      ######       ======      ",
"######       ######      &&&&&&       &&&&&&======&&&&&&%%%%%%%&&&&&&      ######       ======      ",
"######       ######      &&&&&&       &&&&&&======&&&&&&%%%%%%%&&&&&&      ######       ======      ",
"######       ######      &&&&&&       &&&&&&======&&&&&&%%%%%%%&&&&&&      ######       ======      ",
"######       ######      &&&&&&       &&&&&&======&&&&&&%%%%%%%&&&&&&      ######       ======      ",
"######       ######      &&&&&&       &&&&&&======&&&&&&%%%%%%%&&&&&&      ######       ======      ",
"######       ######      &&&&&&       &&&&&&======&&&&&&%%%%%%%&&&&&&      ######       ======      ",
"######       ######      ......&&&&&&&......======......&&&&&&&......%%%%%%######       ======      ",
"######       ######      ......&&&&&&&......======......&&&&&&&......%%%%%%######       ======      ",
"######       ######      ......&&&&&&&......======......&&&&&&&......%%%%%%######       ======      ",
"######       ######      ......&&&&&&&......======......&&&&&&&......%%%%%%######       ======      ",
"######       ######      ......&&&&&&&......======......&&&&&&&......%%%%%%######       ======      ",
"######       ######      ......&&&&&&&......======......&&&&&&&......%%%%%%######       ======      ",
"######       ......&&&&&&......&&&&&&&......======......&&&&&&&......%%%%%%######       ======      ",
"######       ......&&&&&&......&&&&&&&......======......&&&&&&&......%%%%%%######       ======      ",
"######       ......&&&&&&......&&&&&&&......======......&&&&&&&......%%%%%%######       ======      ",
"######       ......&&&&&&......&&&&&&&......======......&&&&&&&......%%%%%%######       ======      ",
"######       ......&&&&&&......&&&&&&&......======......&&&&&&&......%%%%%%######       ======      ",
"######       ......&&&&&&......&&&&&&&......======......&&&&&&&......%%%%%%######       ======      ",
"######=======......######......#######......======......&&&&&&&......======######       ======      ",
"######=======......######......#######......======......&&&&&&&......======######       ======      ",
"######=======......######......#######......======......&&&&&&&......======######       ======      ",
"######=======......######......#######......======......&&&&&&&......======######       ======      ",
"######=======......######......#######......======......&&&&&&&......======######       ======      ",
"######=======......######......#######......======......&&&&&&&......======######       ======      ",
"             &&&&&&      &&&&&&       ==================       &&&&&&      &&&&&&=============      ",
"             &&&&&&      &&&&&&       ==================       &&&&&&      &&&&&&=============      ",
"             &&&&&&      &&&&&&       ==================       &&&&&&      &&&&&&=============      ",
"             &&&&&&      &&&&&&       ==================       &&&&&&      &&&&&&=============      ",
"             &&&&&&      &&&&&&       ==================       &&&&&&      &&&&&&=============      ",
"             &&&&&&      &&&&&&       ==================       &&&&&&      &&&&&&=============      ",
"             &&&&&&      &&&&&&       ==================       &&&&&&      &&&&&&=============      ",
"......#######@@@@@@......######=======++++++======++++++=======......@@@@@@######.......======      ",
"......#######@@@@@@......######=======++++++======++++++=======......@@@@@@######.......======      ",
"......#######@@@@@@......######=======++++++======++++++=======......@@@@@@######.......======      ",
"......#######@@@@@@......######=======++++++======++++++=======......@@@@@@######.......======      ",
"......#######@@@@@@......######=======++++++======++++++=======......@@@@@@######.......======      ",
"......#######@@@@@@......######=======++++++======++++++=======......@@@@@@######.......======      ",
"=============&&&&&&      &&&&&&=======......======......=======            &&&&&&=============      ",
"=============&&&&&&      &&&&&&=======......======......=======            &&&&&&=============      ",
"=============&&&&&&      &&&&&&=======......======......=======            &&&&&&=============      ",
"=============&&&&&&      &&&&&&=======......======......=======            &&&&&&=============      ",
"=============&&&&&&      &&&&&&=======......======......=======            &&&&&&=============      ",
"=============&&&&&&      &&&&&&=======......======......=======            &&&&&&=============      ",
"&&&&&&       ######&&&&&&######       ==================       ######&&&&&&######       ======      ",
"&&&&&&       ######&&&&&&######       ==================       ######&&&&&&######       ======      ",
"&&&&&&       ######&&&&&&######       ==================       ######&&&&&&######       ======      ",
"&&&&&&       ######&&&&&&######       ==================       ######&&&&&&######       ======      ",
"&&&&&&       ######&&&&&&######       ==================       ######&&&&&&######       ======      ",
"&&&&&&       ######&&&&&&######       ==================       ######&&&&&&######       ======      ",
"&&&&&&       ......&&&&&&......&&&&&&&######======######&&&&&&&......&&&&&&######       ======      ",
"&&&&&&       ......&&&&&&......&&&&&&&######======######&&&&&&&......&&&&&&######       ======      ",
"&&&&&&       ......&&&&&&......&&&&&&&######======######&&&&&&&......&&&&&&######       ======      ",
"&&&&&&       ......&&&&&&......&&&&&&&######======######&&&&&&&......&&&&&&######       ======      ",
"&&&&&&       ......&&&&&&......&&&&&&&######======######&&&&&&&......&&&&&&######       ======      ",
"&&&&&&       ......&&&&&&......&&&&&&&######======######&&&&&&&......&&&&&&######       ======      ",
"&&&&&&       ......&&&&&&......&&&&&&&######======######&&&&&&&......&&&&&&######       ======      ",
"&&&&&&=======######      ######       ******      ******       ######      ######       ======      ",
"&&&&&&=======######      ######       ******      ******       ######      ######       ======      ",
"&&&&&&=======######      ######       ******      ******       ######      ######       ======      ",
"&&&&&&=======######      ######       ******      ******       ######      ######       ======      ",
"&&&&&&=======######      ######       ******      ******       ######      ######       ======      ",
"&&&&&&=======######      ######       ******      ******       ######      ######       ======      ",
"      =======      ======      =======      ======      =======      ===============================",
"      =======      ======      =======      ======      =======      ===============================",
"      =======      ======      =======      ======      =======      ===============================",
"      =======      ======      =======      ======      =======      ===============================",
"      =======      ======      =======      ======      =======      ===============================",
"      =======      ======      =======      ======      =======      ==============================="};
