/* XPM */
static char * ground_xpm[] = {
"100 100 11 1",
" 	c #304030",
".	c #404050",
"+	c #609008",
"@	c #909070",
"#	c #483840",
"$	c #487838",
"%	c #908870",
"&	c #808050",
"*	c #387038",
"=	c #98A078",
"-	c #9088B0",
"      .......................................................      .....++++++@@@@@++++++###########",
"      .......................................................      .....++++++@@@@@++++++###########",
"      .......................................................      .....++++++@@@@@++++++###########",
"      .......................................................      .....++++++@@@@@++++++###########",
"      .......................................................      .....++++++@@@@@++++++###########",
"      .......................................................      .....++++++@@@@@++++++###########",
"      ...........$$$$$      .....$$$$$$%%%%%%%%%%%.......................................&&&&&######",
"      ...........$$$$$      .....$$$$$$%%%%%%%%%%%.......................................&&&&&######",
"      ...........$$$$$      .....$$$$$$%%%%%%%%%%%.......................................&&&&&######",
"      ...........$$$$$      .....$$$$$$%%%%%%%%%%%.......................................&&&&&######",
"      ...........$$$$$      .....$$$$$$%%%%%%%%%%%.......................................&&&&&######",
"      ...........$$$$$      .....$$$$$$%%%%%%%%%%%.......................................&&&&&######",
"      ...........$$$$$      +++++$$$$$$$$$$$******......%%%%%===========%%%%%%%%%%%......&&&&&######",
"      ...........$$$$$      +++++$$$$$$$$$$$******......%%%%%===========%%%%%%%%%%%......&&&&&######",
"      ...........$$$$$      +++++$$$$$$$$$$$******......%%%%%===========%%%%%%%%%%%......&&&&&######",
"      ...........$$$$$      +++++$$$$$$$$$$$******......%%%%%===========%%%%%%%%%%%......&&&&&######",
"      ...........$$$$$      +++++$$$$$$$$$$$******......%%%%%===========%%%%%%%%%%%......&&&&&######",
"      ...........$$$$$      +++++$$$$$$$$$$$******......%%%%%===========%%%%%%%%%%%......&&&&&######",
"      ...........+++++      +++++++++++$$$$$******      %%%%%@@@@@@-----@@@@@@+++++      &&&&&######",
"      ...........+++++      +++++++++++$$$$$******      %%%%%@@@@@@-----@@@@@@+++++      &&&&&######",
"      ...........+++++      +++++++++++$$$$$******      %%%%%@@@@@@-----@@@@@@+++++      &&&&&######",
"      ...........+++++      +++++++++++$$$$$******      %%%%%@@@@@@-----@@@@@@+++++      &&&&&######",
"      ...........+++++      +++++++++++$$$$$******      %%%%%@@@@@@-----@@@@@@+++++      &&&&&######",
"      ...........+++++      +++++++++++$$$$$******      %%%%%@@@@@@-----@@@@@@+++++      &&&&&######",
"                            .....      .....      ......+++++------...........     ......&&&&&######",
"                            .....      .....      ......+++++------...........     ......&&&&&######",
"                            .....      .....      ......+++++------...........     ......&&&&&######",
"                            .....      .....      ......+++++------...........     ......&&&&&######",
"                            .....      .....      ......+++++------...........     ......&&&&&######",
"                 .....++++++     ++++++$$$$$.................           ......%%%%%%%%%%%&&&&&######",
"                 .....++++++     ++++++$$$$$.................           ......%%%%%%%%%%%&&&&&######",
"                 .....++++++     ++++++$$$$$.................           ......%%%%%%%%%%%&&&&&######",
"                 .....++++++     ++++++$$$$$.................           ......%%%%%%%%%%%&&&&&######",
"                 .....++++++     ++++++$$$$$.................           ......%%%%%%%%%%%&&&&&######",
"                 .....++++++     ++++++$$$$$.................           ......%%%%%%%%%%%&&&&&######",
"                 $$$$$$$$$$$     ++++++$$$$$+++++++++++++++++++++++.....%%%%%%+++++%%%%%%&&&&&######",
"                 $$$$$$$$$$$     ++++++$$$$$+++++++++++++++++++++++.....%%%%%%+++++%%%%%%&&&&&######",
"                 $$$$$$$$$$$     ++++++$$$$$+++++++++++++++++++++++.....%%%%%%+++++%%%%%%&&&&&######",
"                 $$$$$$$$$$$     ++++++$$$$$+++++++++++++++++++++++.....%%%%%%+++++%%%%%%&&&&&######",
"                 $$$$$$$$$$$     ++++++$$$$$+++++++++++++++++++++++.....%%%%%%+++++%%%%%%&&&&&######",
"                 $$$$$$$$$$$     ++++++$$$$$+++++++++++++++++++++++.....%%%%%%+++++%%%%%%&&&&&######",
"                            ...........+++++$$$$$$$$$$$$$$$$$@@@@@@.....%%%%%%@@@@@++++++&&&&&######",
"                            ...........+++++$$$$$$$$$$$$$$$$$@@@@@@.....%%%%%%@@@@@++++++&&&&&######",
"                            ...........+++++$$$$$$$$$$$$$$$$$@@@@@@.....%%%%%%@@@@@++++++&&&&&######",
"                            ...........+++++$$$$$$$$$$$$$$$$$@@@@@@.....%%%%%%@@@@@++++++&&&&&######",
"                            ...........+++++$$$$$$$$$$$$$$$$$@@@@@@.....%%%%%%@@@@@++++++&&&&&######",
"                            ...........+++++$$$$$$$$$$$$$$$$$@@@@@@.....%%%%%%@@@@@++++++&&&&&######",
"      ...........+++++++++++.....      %%%%%$$$$$$$$$$$$$$$$$@@@@@@     .................&&&&&######",
"      ...........+++++++++++.....      %%%%%$$$$$$$$$$$$$$$$$@@@@@@     .................&&&&&######",
"      ...........+++++++++++.....      %%%%%$$$$$$$$$$$$$$$$$@@@@@@     .................&&&&&######",
"      ...........+++++++++++.....      %%%%%$$$$$$$$$$$$$$$$$@@@@@@     .................&&&&&######",
"      ...........+++++++++++.....      %%%%%$$$$$$$$$$$$$$$$$@@@@@@     .................&&&&&######",
"      ...........+++++++++++.....      %%%%%$$$$$$$$$$$$$$$$$@@@@@@     .................&&&&&######",
"      ...........$$$$$$$$$$$............................           .....%%%%%%%%%%%......&&&&&######",
"      ...........$$$$$$$$$$$............................           .....%%%%%%%%%%%......&&&&&######",
"      ...........$$$$$$$$$$$............................           .....%%%%%%%%%%%......&&&&&######",
"      ...........$$$$$$$$$$$............................           .....%%%%%%%%%%%......&&&&&######",
"      ...........$$$$$$$$$$$............................           .....%%%%%%%%%%%......&&&&&######",
"      ...........$$$$$$$$$$$............................           .....%%%%%%%%%%%......&&&&&######",
"      ...........$$$$$$$$$$$.....      +++++++++++...........%%%%%%%%%%%-----------......&&&&&######",
"      ...........$$$$$$$$$$$.....      +++++++++++...........%%%%%%%%%%%-----------......&&&&&######",
"      ...........$$$$$$$$$$$.....      +++++++++++...........%%%%%%%%%%%-----------......&&&&&######",
"      ...........$$$$$$$$$$$.....      +++++++++++...........%%%%%%%%%%%-----------......&&&&&######",
"      ...........$$$$$$$$$$$.....      +++++++++++...........%%%%%%%%%%%-----------......&&&&&######",
"      ...........$$$$$$$$$$$.....      +++++++++++...........%%%%%%%%%%%-----------......&&&&&######",
"                                 ......+++++++++++++++++.....%%%%%%----------------......&&&&&######",
"                                 ......+++++++++++++++++.....%%%%%%----------------......&&&&&######",
"                                 ......+++++++++++++++++.....%%%%%%----------------......&&&&&######",
"                                 ......+++++++++++++++++.....%%%%%%----------------......&&&&&######",
"                                 ......+++++++++++++++++.....%%%%%%----------------......&&&&&######",
"                                 ......+++++++++++++++++.....%%%%%%----------------......&&&&&######",
"           ...........++++++.....++++++$$$$$++++++++++++     .................           &&&&&######",
"           ...........++++++.....++++++$$$$$++++++++++++     .................           &&&&&######",
"           ...........++++++.....++++++$$$$$++++++++++++     .................           &&&&&######",
"           ...........++++++.....++++++$$$$$++++++++++++     .................           &&&&&######",
"           ...........++++++.....++++++$$$$$++++++++++++     .................           &&&&&######",
"           ...........$$$$$$.....                       ...........*****%%%%%%%%%%%%%%%%%&&&&&######",
"           ...........$$$$$$.....                       ...........*****%%%%%%%%%%%%%%%%%&&&&&######",
"           ...........$$$$$$.....                       ...........*****%%%%%%%%%%%%%%%%%&&&&&######",
"           ...........$$$$$$.....                       ...........*****%%%%%%%%%%%%%%%%%&&&&&######",
"           ...........$$$$$$.....                       ...........*****%%%%%%%%%%%%%%%%%&&&&&######",
"           ...........$$$$$$.....                       ...........*****%%%%%%%%%%%%%%%%%&&&&&######",
"           ...........$$$$$$.....++++++$$$$$+++++++++++++++++++++++.....%%%%%%%%%%%%%%%%%&&&&&######",
"           ...........$$$$$$.....++++++$$$$$+++++++++++++++++++++++.....%%%%%%%%%%%%%%%%%&&&&&######",
"           ...........$$$$$$.....++++++$$$$$+++++++++++++++++++++++.....%%%%%%%%%%%%%%%%%&&&&&######",
"           ...........$$$$$$.....++++++$$$$$+++++++++++++++++++++++.....%%%%%%%%%%%%%%%%%&&&&&######",
"           ...........$$$$$$.....++++++$$$$$+++++++++++++++++++++++.....%%%%%%%%%%%%%%%%%&&&&&######",
"           ...........$$$$$$.....++++++$$$$$+++++++++++++++++++++++.....%%%%%%%%%%%%%%%%%&&&&&######",
"                            $$$$$$$$$$$$$$$$*****************++++++     %%%%%%+++++@@@@@@&&&&&######",
"                            $$$$$$$$$$$$$$$$*****************++++++     %%%%%%+++++@@@@@@&&&&&######",
"                            $$$$$$$$$$$$$$$$*****************++++++     %%%%%%+++++@@@@@@&&&&&######",
"                            $$$$$$$$$$$$$$$$*****************++++++     %%%%%%+++++@@@@@@&&&&&######",
"                            $$$$$$$$$$$$$$$$*****************++++++     %%%%%%+++++@@@@@@&&&&&######",
"                            $$$$$$$$$$$$$$$$*****************++++++     %%%%%%+++++@@@@@@&&&&&######",
"      .......................................................      .....++++++@@@@@++++++###########",
"      .......................................................      .....++++++@@@@@++++++###########",
"      .......................................................      .....++++++@@@@@++++++###########",
"      .......................................................      .....++++++@@@@@++++++###########",
"      .......................................................      .....++++++@@@@@++++++###########",
"      .......................................................      .....++++++@@@@@++++++###########"};
