/* XPM */
static char * right_character_xpm[] = {
"100 100 25 1",
" 	c #304030",
".	c #404050",
"+	c #282828",
"@	c #609008",
"#	c #909070",
"$	c #483840",
"%	c #1058A8",
"&	c #98E8F8",
"*	c #48A0F0",
"=	c #F8F8B0",
"-	c #F8C090",
";	c #487838",
">	c #908870",
",	c #808050",
"'	c #A07860",
")	c #802018",
"!	c #485878",
"~	c #8090B8",
"{	c #F8F8F8",
"]	c #98A078",
"^	c #98B8D8",
"/	c #9088B0",
"(	c #D03808",
"_	c #C0E0E8",
":	c #387038",
"      ....................................................... ++++++++++@@@@@@#####@@@@@@$$$$$$$$$$$",
"      ....................................................... ++++++++++@@@@@@#####@@@@@@$$$$$$$$$$$",
"  +++ ......................................................++%%&&&**%%+@@@@@@#####@@@@@@$$$$$$$$$$$",
"  +++ ......................................................++%%&&&**%%+@@@@@@#####@@@@@@$$$$$$$$$$$",
"++=--+++++..........................................+++++..+%%&&**%%%**+@@@@@@#####@@@@@@$$$$$$$$$$$",
"++=--+++++..........................................+++++..+%%&&**%%%**+@@@@@@#####@@@@@@$$$$$$$$$$$",
"++=--+++++.......;;;;;      .....;;;;;;>>>>>>>>>>>..+++++..+%%&&**%%%**+.................,,,,,$$$$$$",
"++-''%%&&*++++...;;;;;      .....;;;;;;>>>>>>>>>++++***%%+++****%%'--%%%++...............,,,,,$$$$$$",
"++-''%%&&*++++...;;;;;      .....;;;;;;>>>>>>>>>++++***%%+++****%%'--%%%++...............,,,,,$$$$$$",
"  +++%%***%%&&+++++;;;      .....;;;;;;>>+++++++++==***%%%%+**%%--)++''%++...............,,,,,$$$$$$",
"  +++%%***%%&&+++++;;;      .....;;;;;;>>+++++++++==***%%%%+**%%--)++''%++...............,,,,,$$$$$$",
"   +++++++++%%%%%&&+++++    .....;+++++++!!~~!!+++++=----''+++=====)){{+.................,,,,,$$$$$$",
"   +++++++++%%%%%&&+++++    @@@@@;+++++++!!~~!!+++++=----''+++=====)){{+>>>>>>>>>>>......,,,,,$$$$$$",
"      ......+++++**&&&&&++++++++++!!~~!!+++++++*&&&&+++++++!~~++--===--+>>>>>>>>>>>......,,,,,$$$$$$",
"      ......+++++**&&&&&++++++++++!!~~!!+++++++*&&&&+++++++!~~++--===--+>>>>>>>>>>>......,,,,,$$$$$$",
"      ...........+++++**&&&&&+++++++++++)))))++!!!***%%++%%+!!~~++'''++]>>>>>>>>>>>......,,,,,$$$$$$",
"      ...........+++++**&&&&&+++++++++++)))))++!!!***%%++%%+!!~~++'''++]>>>>>>>>>>>......,,,,,$$$$$$",
"      ...........;;;;;++++++*&&&&&++++++)))))++^~~+++++--**%++++!!+++++]>>>>>>>>>>>......,,,,,$$$$$$",
"      ...........@@@@@++++++*&&&&&++++++)))))++^~~+++++--**%++++!!+++++/######@@@@@      ,,,,,$$$$$$",
"      ...........@@@@@++++++*&&&&&++++++)))))++^~~+++++--**%++++!!+++++/######@@@@@      ,,,,,$$$$$$",
"      ...........@@@@+!!~~~~+++++*&&&&&&+++++++~~~++%%%++==*%%++++%%%''+######@@@@@      ,,,,,$$$$$$",
"      ...........@@@@+!!~~~~+++++*&&&&&&+++++++~~~++%%%++==*%%++++%%%''+######@@@@@      ,,,,,$$$$$$",
"      ...........@@++!~~++++)))))+++++**&&&&&++~!!++%%%++--%%%%%++++++++####+++++@@      ,,,,,$$$$$$",
"      ...........@@++!~~++++)))))+++++**&&&&&++~!!++%%%++--%%%%%++++++++####+++++@@      ,,,,,$$$$$$",
"                 ++!!~++))))))))))))))+++++**++~^^~~+++%%++'''+++++!!!!!++....+!!+++++...,,,,,$$$$$$",
"                 ++!!~++))))))))))))))+++++**++~^^~~+++%%++'''+++++!!!!!++....+!!+++++...,,,,,$$$$$$",
"                +!!~~+++++)))))))))))))))))++++!~~++*&&+++++))))++%++++++++++++++~~!!!++++,,,,$$$$$$",
"                +!!~~+++++)))))))))))))))))++++!~~++*&&+++++))))++%++++++++++++++~~!!!++++,,,,$$$$$$",
"                +~~++     ++)))))))))))))++%%**++++++**&&&&&+++++++%%++!~~++++!!!!!~!!~~!!+,,,$$$$$$",
"                +~~++.@@@@++)))))))))))))++%%**++++++**&&&&&+++++++%%++!~~++++!!!!!~!!~~!!+,,,$$$$$$",
"              ++!++...@@@@@@+)))))))))))+''%%*****==+++++++*&&&&&&++++++++--==+!!!!!~~!!~~!++,$$$$$$",
"              ++!++...@@@@@@+)))))))))))+''%%*****==+++++++*&&&&&&++++++++--==+!!!!!~~!!~~!++,$$$$$$",
"              ++!++...@@@@@@+)))))))))))+''%%*****==+++++++*&&&&&&++++++++--==+!!!!!~~!!~~!++,$$$$$$",
"              +++.....@@@@@@ ++)))))))))+''''%%%==++%++%%%%+++++**&&&--=(((((('__!!!!!!!~~~!!++$$$$$",
"              +++.....@@@@@@ ++)))))))))+''''%%%==++%++%%%%+++++**&&&--=(((((('__!!!!!!!~~~!!++$$$$$",
"              ++ ;;;;;;;+++++++++++++++++''--===++**%%%+++++++!!+++''''(((==((!{{{{_!!!!~~~!!++$$$$$",
"              ++ ;;;;;;;+++++++++++++++++''--===++**%%%+++++++!!+++''''(((==((!{{{{_!!!!~~~!!++$$$$$",
"                 ;;;;;++!!!!!!!+++^^____^++''''+*****%%+++++++++++!++--'))(())!~~^^{{{__!!!!!++$$$$$",
"                 ;;;;;++!!!!!!!+++^^____^++''''+*****%%+++++++++++!++--'))(())!~~^^{{{__!!!!!++$$$$$",
"                 ;;;;;++!!!!~!!++_______%%%+++++%%**+++++!!!!!!!!!~__++-''''!!^__^^~^^{{{{_!!!!$$$$$",
"                 ;;;;;++!!!!~!!++_______%%%+++++%%**+++++!!!!!!!!!~__++-''''!!^__^^~^^{{{{_!!!!$$$$$",
"                     +!!!!~~!++__{{{____*%%%%%%%++++___^^+++++!!~~___{{+==''!!^___________{{{{{!!!$$",
"                     +!!!!~~!++__{{{____*%%%%%%%++++___^^+++++!!~~___{{+==''!!^___________{{{{{!!!$$",
"                     +!!~~~~+__{{{{{__%%***%%%%+++%%^^^!!++!!!~~___{{{{_++++++++++++++++++++++++++++",
"                     +!!~~~~+__{{{{{__%%***%%%%+++%%^^^!!++!!!~~___{{{{_++++++++++++++++++++++++++++",
"                     +!!~~~~+__{{{{{__%%***%%%%+++%%^^^!!++!!!~~___{{{{_++++++++++++++++++++++++++++",
"                     +!!~~!!+{{{{{__%%*******%%+%%**%%%+++++!!____{{{{{^____^^^^^~~%**&&**+&&**%%+$$",
"      ...........@@@@+!!~~!!+{{{{{__%%*******%%+%%**%%%+++++!!____{{{{{^____^^^^^~~%**&&**+&&**%%+$$",
"      ...........@@@@+~~~~++^{{{{{^^%%%%*****++%*****%%++%%+^^____{{{__~__^^^^^^^+++%%*******&&%%+$$",
"      ...........@@@@+~~~~++^{{{{{^^%%%%*****++%*****%%++%%+^^____{{{__~__^^^^^^^+++%%*******&&%%+$$",
"      ...........@@@@+~~~~++_{{{{_^^%%%%%****++*****%++%%***%%^^__{{{^^~^^^^^^~++...++++++%****{{^++",
"      ...........@@@@+~~~~++_{{{{_^^%%%%%****++*****%++%%***%%^^__{{{^^~^^^^^^~++...++++++%****{{^++",
"      ...........@@@@+~~~~++_{{{{^^^%%''%%%%%++***%%+%%**%%***%%^^{__~~~^^~~!!+++........,+%%{{{{^++",
"      ...........;;;;+~~~~++_{{{{^^^%%''%%%%%++***%%+%%**%%***%%^^{__~~~^^~~!!+++>>......,+%%{{{{^++",
"      ...........;;;;+~~!!++_{{__^{{%%%%'%%++%%*%%++%&&&&**%%%--''%%%%%%%%++++-++>>......,+^^!!^^+$$",
"      ...........;;;;+~~!!++_{{__^{{%%%%'%%++%%*%%++%&&&&**%%%--''%%%%%%%%++++-++>>......,+^^!!^^+$$",
"      ...........;;;;+~~!!++_{{__^{{%%%%'%%++%%*%%++%&&&&**%%%--''%%%%%%%%++++-++>>......,+^^!!^^+$$",
"      ...........;;++!~~!!++_____{{{{{%%%''++**---++%&&&&%%-==''%%-=====%%--''+''++......,,++++++$$$",
"      ...........;;++!~~!!++_____{{{{{%%%''++**---++%&&&&%%-==''%%-=====%%--''+''++......,,++++++$$$",
"      ...........;;++!~~!!++___{{{{{{{__%%%++==%%%%%+****--=--''^^+%%%%=%%--%%+''++......,,,,,$$$$$$",
"      ...........;;++!~~!!++___{{{{{{{__%%%++==%%%%%+****--=--''^^+%%%%=%%--%%+''++......,,,,,$$$$$$",
"      ...........;;++!~~!!++_{{{{{{{__^^+++%%++%****+**''---''{{{{^++++'--''++^++++......,,,,,$$$$$$",
"      ...........;;++!~~!!++_{{{{{{{__^^+++%%++%****+**''---''{{{{^++++'--''++^++++......,,,,,$$$$$$",
"      ...........;;++!~~!!++_{{{{{__^^!!+!!+++++++++%==%%'''{{{{{{{____+++++__^++//......,,,,,$$$$$$",
"      ...........;;++!~~!!++_{{{{{__^^!!+!!+++++++++%==%%'''{{{{{{{____+++++__^++//......,,,,,$$$$$$",
"                   ++!!!!!++______^^!!++@++!!!!!+++++%%%%%%_{{{{{{{____~______^++//......,,,,,$$$$$$",
"                   ++!!!!!++______^^!!++@++!!!!!+++++%%%%%%_{{{{{{{____~______^++//......,,,,,$$$$$$",
"                   ++!!!++++{{{__^^^++.@@++!!!!!++++@%%%%!!^__{{{{{__^^~____^^^~~++......,,,,,$$$$$$",
"                   ++!!!++++{{{__^^^++.@@++!!!!!++++@%%%%!!^__{{{{{__^^~____^^^~~++......,,,,,$$$$$$",
"                   ++!!!++++{{{__^^^++.@@++!!!!!++++@%%%%!!^__{{{{{__^^~____^^^~~++......,,,,,$$$$$$",
"                   ++!!!++++{{{__^++...@@++!!!!!++@@@@@@.+++^^____^!!~~!~~^^^^___++......,,,,,$$$$$$",
"           ........++!!!++++{{{__^++@@@;;++!!!!!++@@@@@@ +++^^____^!!~~!~~^^^^___++      ,,,,,$$$$$$",
"           ........++!++!!++___^^+@@@@@;;;;++!!!++@@@@@@    ++^^_____+++++++^^___++      ,,,,,$$$$$$",
"           ........++!++!!++___^^+@@@@@;;;;++!!!++@@@@@@    ++^^_____+++++++^^___++      ,,,,,$$$$$$",
"           ........++!++!!++{__^^+@@@@@;;;;;@++!!!++@@@@     .++___{{{{+....++^{{{{+     ,,,,,$$$$$$",
"           ........++!++!!++{__^^+@@@@@;;;;;@++!!!++@@@@     .++___{{{{+....++^{{{{+     ,,,,,$$$$$$",
"           ........+++++++++{__++              +!!+++   ......++++_{{{{+>>>>>>+{{{{^++>>>,,==,$$$$$$",
"           ........+++++++++{__++              +!!+++   ......++++_{{{{+>>>>>>+{{{{^++>>>,,==,$$$$$$",
"           ........+++;;++++{^^++              +!!!!!++ ....++!!++^____+>>>>>>+!!^^_++>>>,,,,,$$$$$$",
"           ........+++;;++++{^^++              +!!!!!++ ....++!!++^____+>>>>>>+!!^^_++>>>,,,,,$$$$$$",
"           ........++.++;;++{^^++               ++!!!++ ....++!!!!+++++:>>>>>>>++^^{++>>>,,,,,$$$$$$",
"           ........++.++;;++{^^++               ++!!!++ ....++!!!!+++++:>>>>>>>++^^{++>>>,,,,,$$$$$$",
"           ........++.++;;++{^^++@@@@@@;;;;;@@@@++!!!++@@@@@++!!!!+++++.>>>>>>>++^^{++>>>,,,,,$$$$$$",
"           ........++.;;;;++_^^++@@@@@@;;;;;@@@@+++++!!++@@@@@++!!!++...>>>>>>>>>++{__++>,,,,,$==$$$",
"           ........++.;;;;++_^^++@@@@@@;;;;;@@@@+++++!!++@@@@@++!!!++...>>>>>>>>>++{__++>,,,,,$==$$$",
"           ...........;;++++_~~+++++++++++++++++++!!!!!++@@@@@@@+++.....>>>>>>>>>++_{{++>,,,,--==$$$",
"           ...........;;++++_~~+++++++++++++++++++!!!!!++@@@@@@@+++.....>>>>>>>>>++_{{++>,,,,--==$$$",
"           ...........;;++~~^~~+++++++++++++++++++!!!!!+++++++++++++++++++>>>>>>>++!^^__++,,,==$$$$$",
"                        ++~~^~~+++++++++++++++++++!!!!!+++++++++++++++++++>>>>@@@++!^^__++,,,==$$$$$",
"                        ++^^_^^~~+++++++++++++++++++++++++++++++++++++++++++++++++++^^!!!!+--==$$-==",
"                        ++^^_^^~~+++++++++++++++++++++++++++++++++++++++++++++++++++^^!!!!+--==$$-==",
"                        ++~~_^^~~++++++++++++++++++++++++++++++++++++++++++++++--+++!!!!~~---=====$$",
"                        ++~~_^^~~++++++++++++++++++++++++++++++++++++++++++++++--+++!!!!~~---=====$$",
"                          +++++++++++++++++++++++++++++++++++++++++++++++++++++++--+~~^^^^-======+$$",
"      ....................+++++++++++++++++++++++++++++++++++++++++++++++++++++++--+~~^^^^-======+$$",
"      ....................+++++++++++++++++++++++++++++++++++++++++++++++++++++++--+~~^^^^-======+$$",
"      ................................+++++++++++++++++++++++++++++++++++++++++++++-++++--=====+++$$",
"      ................................+++++++++++++++++++++++++++++++++++++++++++++-++++--=====+++$$",
"      .................................................++++++++++++++++++++++++++++++++++++++++++$$$",
"      .................................................++++++++++++++++++++++++++++++++++++++++++$$$"};
