/* XPM */
static char * side_eye_xpm[] = {
"100 100 22 1",
" 	c #304030",
".	c #404050",
"+	c #900000",
"@	c #609008",
"#	c #909070",
"$	c #483840",
"%	c #C82800",
"&	c #F05818",
"*	c #487838",
"=	c #808050",
"-	c #282828",
";	c #581068",
">	c #803890",
",	c #A860B8",
"'	c #908870",
")	c #B0B0B0",
"!	c #D8D8D8",
"~	c #C06050",
"{	c #F8F8F8",
"]	c #E898A8",
"^	c #9088B0",
"/	c #387038",
"      ......................+++++++++++++....................      .....@@@@@@#####@@@@@@$$$$$$$$$$$",
"      ......................+++++++++++++....................      .....@@@@@@#####@@@@@@$$$$$$$$$$$",
"      ......................+++++++++++++....................      .....@@@@@@#####@@@@@@$$$$$$$$$$$",
"      ..................++++%%%%%%%%%%%%%+++++...............      .....@@@@@@#####@@@@@@$$$$$$$$$$$",
"      ............+++++++++++++++&&&&&%%%%%%%%+++++..........      .....@@@@@@#####@@@@@@$$$$$$$$$$$",
"      ............+++++++++++++++&&&&&%%%%%%%%+++++..........      .....@@@@@@#####@@@@@@$$$$$$$$$$$",
"      ...........*+++++++++++++++&&&&&%%%%%%%%+++++......................................=====$$$$$$",
"      .........+++++++++------------%%&&&%%%++%%%%%---...................................=====$$$$$$",
"      .......++++++++---    .....***--%%%&&&%%++++++++--......;;;;;;;;;;;;;;.............=====$$$$$$",
"      .......++++++++---    .....***--%%%&&&%%++++++++--......;;;;;;;;;;;;;;.............=====$$$$$$",
"      .......++++++++---    .....***--%%%&&&%%++++++++--......;;;;;;;;;;;;;;.............=====$$$$$$",
"      .......+++++---*      .....*****---%%%&&++++++++;;;;;;;;>>>>>,,,,,,,>>;;;;;;.......=====$$$$$$",
"      .......+++++---*      @@@@@*****---%%%&&++++++++;;;;;;;;>>>>>,,,,,,,>>;;;;;;'......=====$$$$$$",
"      ...++++++---****      @@@@@********---%%+++++;;;>>>>>,,,,,,,,>>>>>;;;;;;;;;;;;;;;..=====$$$$$$",
"      ...++++++---****      @@@@@********---%%+++++;;;>>>>>,,,,,,,,>>>>>;;;;;;;;;;;;;;;..=====$$$$$$",
"      ...++++++---****      @@@@@********---++%%%;;>>>;;,,,,,,,,>>>;;;;;>>,,,,,,,,,,,>>;;;;;==$$$$$$",
"      ...++++++---****      @@@@@********---++%%%;;>>>;;,,,,,,,,>>>;;;;;>>,,,,,,,,,,,>>;;;;;==$$$$$$",
"      ...++++++---****      @@@@@********---++%%%;;>>>;;,,,,,,,,>>>;;;;;>>,,,,,,,,,,,>>;;;;;==$$$$$$",
"      ...++++++---@@@@      @@@@@@@@@@@*****--+++>>;;;>>;;;;;;;;;;;>>,,,,,>>>>>>>>>>>>>>>>>>;;;$$$$$",
"      .......++---@@@@    ++++++++++++-------->>>++;;;;;>>>,,,;;>>>,,>>>>>,,,,,,,,,,,,,,,>>>;;;$$$$$",
"      .......++---@@@@    ++++++++++++-------->>>++;;;;;>>>,,,;;>>>,,>>>>>,,,,,,,,,,,,,,,>>>;;;$$$$$",
"      .......++---@@@@    ++++++++++++-------->>>++;;;;;>>>,,,;;>>>,,>>>>>,,,,,,,,,,,,,,,>>>;;;$$$$$",
"      .......+++++---@  ++%%&&&%%%%%%%++++++;;;;;,,;;;;;;;;;;;>>,,,>>>>>,,,,,,,,,,,,,,,,,,,,>>>;$$$$",
"      .......+++++---@  ++%%&&&%%%%%%%++++++;;;;;,,;;;;;;;;;;;>>,,,>>>>>,,,,,,,,,,,,,,,,,,,,>>>;$$$$",
"               +++---+++%%&&++++++++++%%%;;;;;;;;>>;;;;;;;;>>>>>>>>>>,,,,,,,,,,,,,,,,,,,,,,,,,,;$$$$",
"               +++---+++%%&&++++++++++%%%;;;;;;;;>>;;;;;;;;>>>>>>>>>>,,,,,,,,,,,,,,,,,,,,,,,,,,;$$$$",
"             ++---+++%%%&&+++++-------+++%%%;;;;;;;>>>;;>>>>>>>>>>>,,,,,,,,,,,,,,,,,,,,,,,,,,,,,;;;;",
"             ++---+++%%%&&+++++-------+++%%%;;;;;;;>>>;;>>>>>>>>>>>,,,,,,,,,,,,,,,,,,,,,,,,,,,,,;;;;",
"        +++++--++++++%%%++++---..     ---%%%;;>>>;;;;;>>>>>>>>>>,,,,,;;;;;;;;;;>>>>>>>>>>>>>>>>;;;;;",
"        +++++--++++++%%%++++---  @@@@@---%%%;;>>>;;;;;>>>>>>>>>>,,,,,;;;;;;;;;;>>>>>>>>>>>>>>>>;;;;;",
"        +++++--++++++%%%++++---  @@@@@---%%%;;>>>;;;;;>>>>>>>>>>,,,,,;;;;;;;;;;>>>>>>>>>>>>>>>>;;;;;",
"     +++&&&&&%%+++%%%+++++%%%%%-------@**---%%>>>;;>>>;;;;;;;;;;;;;;;)))!!~~~~~++++++-------+++;$$$$",
"    +&&&++++++++++%%%+++++++&&&%%+++++------;;;;;;;;;;))!!!!!!!!!!!{{{{{{{]]!!!{{{{{{))-----~~~+$$$$",
"    +&&&++++++++++%%%+++++++&&&%%+++++------;;;;;;;;;;))!!!!!!!!!!!{{{{{{{]]!!!{{{{{{))-----~~~+$$$$",
"    +&&&++++++++++%%%+++++++&&&%%+++++------;;;;;;;;;;))!!!!!!!!!!!{{{{{{{]]!!!{{{{{{))-----~~~+$$$$",
"++++%+++-------%%%++++++----+++&&%%%+++++---;;>>>>>;;;;;;;;;;;)){{{{{{{{{{]]]]]~~~~~~>>-->>>~~~+$$$$",
"++++%+++-------%%%++++++----+++&&%%%+++++---;;>>>>>;;;;;;;;;;;)){{{{{{{{{{]]]]]~~~~~~>>-->>>~~~+$$$$",
"++++%---     --%%%+++---+++++++++&&&+++++---;;>>>;;>>>>>>>>>>>;;;;;;;;;;;;]]]]]~~~~~~~~~~~~~~~~;;;;;",
"++++%---     --%%%+++---+++++++++&&&+++++---;;>>>;;>>>>>>>>>>>;;;;;;;;;;;;]]]]]~~~~~~~~~~~~~~~~;;;;;",
"++++%---     --%%%+++---%%%%%%%+++++%%+++-----;;;;;;;;>>>>>>>>,,,,,,,,,,,,;;;;;;;;;;;;;;;;;;;;;,;;;;",
"++++%---     --%%%+++---%%%%%%%+++++%%+++-----;;;;;;;;>>>>>>>>,,,,,,,,,,,,;;;;;;;;;;;;;;;;;;;;;,;;;;",
"++++%---     --%%%+++---%%%%%%%+++++%%+++-----;;;;;;;;>>>>>>>>,,,,,,,,,,,,;;;;;;;;;;;;;;;;;;;;;,;;;;",
"++++%---     --%%%+++---------------++%%%+++--;;;;;;;;;;>>>>>>>>>>>,,,,,,,,,,,,,,,,,,,,,,,,,,,,>;;;;",
"++++%---     --%%%+++---    ........-----%%%--;;;;;;;;>>;;;>>>;;>>>>>>>>>>,,,,,,,,,,,,,,,>>>;;;;$$$$",
"++++%---     --%%%+++---    ........-----%%%--;;;;;;;;>>;;;>>>;;>>>>>>>>>>,,,,,,,,,,,,,,,>>>;;;;$$$$",
"++++%---     --%%%+++---    ........-----%%%--;;;;;;;;>>;;;>>>;;>>>>>>>>>>,,,,,,,,,,,,,,,>>>;;;;$$$$",
"    +---     --%%%+++---    ...........@@---++---;;;;;;;;;;;;;>>;;;>>>>>;;>>>>>>>>>>>>>>>;;;---$$$$$",
"    ++++.......---%%%+++--@@.....      '''''----------;;;;;;;;;;>>>;;;;;>>;;;;;;;;;;;;;;;---==$$$$$$",
"    ++++.......---%%%+++--@@.....      '''''----------;;;;;;;;;;>>>;;;;;>>;;;;;;;;;;;;;;;---==$$$$$$",
"    ++++.......---%%%+++--@@.....      '''''----------;;;;;;;;;;>>>;;;;;>>;;;;;;;;;;;;;;;---==$$$$$$",
"     +++-......---%%%+++--@@.....      '''''*******--------;;;;;;;;;;;;;;;;;;;;;;;;;;----=====$$$$$$",
"     +++-......---%%%+++--@@.....      '''''*******--------;;;;;;;;;;;;;;;;;;;;;;;;;;----=====$$$$$$",
"     +++-......---%%%+++--@@.....      '''''*******--------;;;;;;;;;;;;;;;;;;;;;;;;;;----=====$$$$$$",
"      ..+........*---%%%++--............................---;;;--;;;;;;;;;;;;;;;------....=====$$$$$$",
"      ..+----....****---%%--............................      -----------------''''......=====$$$$$$",
"      ..+----....****---%%--............................      -----------------''''......=====$$$$$$",
"      ..+----....****---%%--............................      -----------------''''......=====$$$$$$",
"      ...++++....*******--++---.........................           .....'''''''''''......=====$$$$$$",
"      ...........*********--+++--.......................           .....'''''''''''......=====$$$$$$",
"      ...........*********--+++--      @@@@@@@@@@@...........'''''''''''^^^^^^^^^^^......=====$$$$$$",
"      ...........*********--+++--      @@@@@@@@@@@...........'''''''''''^^^^^^^^^^^......=====$$$$$$",
"      ...........***********-----      @@@@@@@@@@@...........'''''''''''^^^^^^^^^^^......=====$$$$$$",
"      ...........***********-----      @@@@@@@@@@@...........'''''''''''^^^^^^^^^^^......=====$$$$$$",
"      ...........***********...-----   @@@@@@@@@@@...........'''''''''''^^^^^^^^^^^......=====$$$$$$",
"      ...........***********...-----   @@@@@@@@@@@...........'''''''''''^^^^^^^^^^^......=====$$$$$$",
"                                 ---...@@@@@@@@@@@@@@@@@.....''''''^^^^^^^^^^^^^^^^......=====$$$$$$",
"                                 ---...@@@@@@@@@@@@@@@@@.....''''''^^^^^^^^^^^^^^^^......=====$$$$$$",
"                                 ---...@@@@@@@@@@@@@@@@@.....''''''^^^^^^^^^^^^^^^^......=====$$$$$$",
"                                 ......@@@@@@@@@@@@@@@@@.....''''''^^^^^^^^^^^^^^^^......=====$$$$$$",
"                                 ......@@@@@@@@@@@@@@@@@.....''''''^^^^^^^^^^^^^^^^......=====$$$$$$",
"                                 ......@@@@@@@@@@@@@@@@@.....''''''^^^^^^^^^^^^^^^^......=====$$$$$$",
"           ...........@@@@@@.....@@@@@@*****@@@@@@@@@@@@     .................           =====$$$$$$",
"           ...........@@@@@@.....@@@@@@*****@@@@@@@@@@@@     .................           =====$$$$$$",
"           ...........@@@@@@.....@@@@@@*****@@@@@@@@@@@@     .................           =====$$$$$$",
"           ...........@@@@@@.....@@@@@@*****@@@@@@@@@@@@     .................           =====$$$$$$",
"           ...........@@@@@@.....@@@@@@*****@@@@@@@@@@@@     .................           =====$$$$$$",
"           ...........******.....                       .........../////'''''''''''''''''=====$$$$$$",
"           ...........******.....                       .........../////'''''''''''''''''=====$$$$$$",
"           ...........******.....                       .........../////'''''''''''''''''=====$$$$$$",
"           ...........******.....                       .........../////'''''''''''''''''=====$$$$$$",
"           ...........******.....                       .........../////'''''''''''''''''=====$$$$$$",
"           ...........******.....                       .........../////'''''''''''''''''=====$$$$$$",
"           ...........******.....@@@@@@*****@@@@@@@@@@@@@@@@@@@@@@@.....'''''''''''''''''=====$$$$$$",
"           ...........******.....@@@@@@*****@@@@@@@@@@@@@@@@@@@@@@@.....'''''''''''''''''=====$$$$$$",
"           ...........******.....@@@@@@*****@@@@@@@@@@@@@@@@@@@@@@@.....'''''''''''''''''=====$$$$$$",
"           ...........******.....@@@@@@*****@@@@@@@@@@@@@@@@@@@@@@@.....'''''''''''''''''=====$$$$$$",
"           ...........******.....@@@@@@*****@@@@@@@@@@@@@@@@@@@@@@@.....'''''''''''''''''=====$$$$$$",
"           ...........******.....@@@----------------------------------------'''''''''''''=====$$$$$$",
"                            ********----------------------------------------''@@@@@######=====$$$$$$",
"                          -----------------------------------------------------------####=====$$$$$$",
"                          -----------------------------------------------------------####=====$$$$$$",
"                          -----------------------------------------------------------####=====$$$$$$",
"                     ------------------------------------------------------------------##=====$$$$$$",
"                     ------------------------------------------------------------------##=====$$$$$$",
"      ...............------------------------------------------------------------------@@$$$$$$$$$$$",
"      ...............------------------------------------------------------------------@@$$$$$$$$$$$",
"      ......................------------------------------------------------------#@@@@@@$$$$$$$$$$$",
"      ......................................------------------------------@@@@#####@@@@@@$$$$$$$$$$$",
"      ......................................------------------------------@@@@#####@@@@@@$$$$$$$$$$$",
"      ......................................------------------------------@@@@#####@@@@@@$$$$$$$$$$$"};
