/* XPM */
static char * back_wall_xpm[] = {
"100 100 13 1",
" 	c #D8D088",
".	c #889860",
"+	c #F0F8D0",
"@	c #F8F8E0",
"#	c #E8E8B0",
"$	c #F8F8C0",
"%	c #E8E888",
"&	c #B09858",
"*	c #98A048",
"=	c #A08868",
"-	c #806038",
";	c #504048",
">	c #683038",
"                                                                                              ......",
"                                                                                              ......",
"                                                                                              ......",
"                                                                                              ......",
"                                                                                              ......",
"                                                                                              ......",
"++++++@@@@@@#############$$$$$$$$$$$$###################$$$$$$$$$$$$$++++++$$$$$$      %%%%%%%&&&&&&",
"++++++@@@@@@#############$$$$$$$$$$$$###################$$$$$$$$$$$$$++++++$$$$$$      %%%%%%%&&&&&&",
"++++++@@@@@@#############$$$$$$$$$$$$###################$$$$$$$$$$$$$++++++$$$$$$      %%%%%%%&&&&&&",
"++++++@@@@@@#############$$$$$$$$$$$$###################$$$$$$$$$$$$$++++++$$$$$$      %%%%%%%&&&&&&",
"++++++@@@@@@#############$$$$$$$$$$$$###################$$$$$$$$$$$$$++++++$$$$$$      %%%%%%%&&&&&&",
"++++++@@@@@@#############$$$$$$$$$$$$###################$$$$$$$$$$$$$++++++$$$$$$      %%%%%%%&&&&&&",
"############$$$$$$$$$$$$$++++++$$$$$$$$$$$$$$$$$$$$$$$$$$$$$$$+++++++++++++############%%%%%%%******",
"############$$$$$$$$$$$$$++++++$$$$$$$$$$$$$$$$$$$$$$$$$$$$$$$+++++++++++++############%%%%%%%******",
"############$$$$$$$$$$$$$++++++$$$$$$$$$$$$$$$$$$$$$$$$$$$$$$$+++++++++++++############%%%%%%%******",
"############$$$$$$$$$$$$$++++++$$$$$$$$$$$$$$$$$$$$$$$$$$$$$$$+++++++++++++############%%%%%%%******",
"############$$$$$$$$$$$$$++++++$$$$$$$$$$$$$$$$$$$$$$$$$$$$$$$+++++++++++++############%%%%%%%******",
"############$$$$$$$$$$$$$++++++$$$$$$$$$$$$$$$$$$$$$$$$$$$$$$$+++++++++++++############%%%%%%%******",
"@@@@@@$$$$$$$$$$$$$$$$$$$#########################                   ############$$$$$$       ******",
"@@@@@@$$$$$$$$$$$$$$$$$$$#########################                   ############$$$$$$       ******",
"@@@@@@$$$$$$$$$$$$$$$$$$$#########################                   ############$$$$$$       ******",
"@@@@@@$$$$$$$$$$$$$$$$$$$#########################                   ############$$$$$$       ******",
"@@@@@@$$$$$$$$$$$$$$$$$$$#########################                   ############$$$$$$       ******",
"@@@@@@$$$$$$$$$$$$$$$$$$$#########################                   ############$$$$$$       ******",
"@@@@@@$$$$$$+++++++############%%%%%%%%%%%%%            $$$$$$$$$$$$$######$$$$$$$$$$$$       ******",
"@@@@@@$$$$$$+++++++############%%%%%%%%%%%%%            $$$$$$$$$$$$$######$$$$$$$$$$$$       ******",
"@@@@@@$$$$$$+++++++############%%%%%%%%%%%%%            $$$$$$$$$$$$$######$$$$$$$$$$$$       ******",
"@@@@@@$$$$$$+++++++############%%%%%%%%%%%%%            $$$$$$$$$$$$$######$$$$$$$$$$$$       ******",
"@@@@@@$$$$$$+++++++############%%%%%%%%%%%%%            $$$$$$$$$$$$$######$$$$$$$$$$$$       ******",
"######$$$$$$#############$$$$$$$$$$$$$$$$$$$$$$$$$                   ++++++++++++++++++$$$$$$$******",
"######$$$$$$#############$$$$$$$$$$$$$$$$$$$$$$$$$                   ++++++++++++++++++$$$$$$$******",
"######$$$$$$#############$$$$$$$$$$$$$$$$$$$$$$$$$                   ++++++++++++++++++$$$$$$$******",
"######$$$$$$#############$$$$$$$$$$$$$$$$$$$$$$$$$                   ++++++++++++++++++$$$$$$$******",
"######$$$$$$#############$$$$$$$$$$$$$$$$$$$$$$$$$                   ++++++++++++++++++$$$$$$$******",
"######$$$$$$#############$$$$$$$$$$$$$$$$$$$$$$$$$                   ++++++++++++++++++$$$$$$$******",
"************=======******============*******************===================************=======......",
"************=======******============*******************===================************=======......",
"************=======******============*******************===================************=======......",
"************=======******============*******************===================************=======......",
"************=======******============*******************===================************=======......",
"************=======******============*******************===================************=======......",
"&&&&&&&&&&&&.......&&&&&&&&&&&&******=======******&&&&&&*******************&&&&&&*************------",
"&&&&&&&&&&&&.......&&&&&&&&&&&&******=======******&&&&&&*******************&&&&&&*************------",
"&&&&&&&&&&&&.......&&&&&&&&&&&&******=======******&&&&&&*******************&&&&&&*************------",
"&&&&&&&&&&&&.......&&&&&&&&&&&&******=======******&&&&&&*******************&&&&&&*************------",
"&&&&&&&&&&&&.......&&&&&&&&&&&&******=======******&&&&&&*******************&&&&&&*************------",
"&&&&&&&&&&&&.......&&&&&&&&&&&&******=======******&&&&&&*******************&&&&&&*************------",
"&&&&&&******=======******===================******************&&&&&&&............*************;;;;;;",
"&&&&&&******=======******===================******************&&&&&&&............*************;;;;;;",
"&&&&&&******=======******===================******************&&&&&&&............*************;;;;;;",
"&&&&&&******=======******===================******************&&&&&&&............*************;;;;;;",
"&&&&&&******=======******===================******************&&&&&&&............*************;;;;;;",
"&&&&&&******=======******===================******************&&&&&&&............*************;;;;;;",
"============--------------------------------------============-------------------------;;;;;;;;;;;;;",
"============--------------------------------------============-------------------------;;;;;;;;;;;;;",
"============--------------------------------------============-------------------------;;;;;;;;;;;;;",
"============--------------------------------------============-------------------------;;;;;;;;;;;;;",
"============--------------------------------------============-------------------------;;;;;;;;;;;;;",
"============--------------------------------------============-------------------------;;;;;;;;;;;;;",
"======&&&&&&&&&&&&&&&&&&&&&&&&&&&&&&&&&&&&&&&&&&&&======             &&&&&&&&&&&&&&&&&&&&&&&&&&&&&&&",
"======&&&&&&&&&&&&&&&&&&&&&&&&&&&&&&&&&&&&&&&&&&&&======             &&&&&&&&&&&&&&&&&&&&&&&&&&&&&&&",
"======&&&&&&&&&&&&&&&&&&&&&&&&&&&&&&&&&&&&&&&&&&&&======             &&&&&&&&&&&&&&&&&&&&&&&&&&&&&&&",
"======&&&&&&&&&&&&&&&&&&&&&&&&&&&&&&&&&&&&&&&&&&&&======             &&&&&&&&&&&&&&&&&&&&&&&&&&&&&&&",
"======&&&&&&&&&&&&&&&&&&&&&&&&&&&&&&&&&&&&&&&&&&&&======             &&&&&&&&&&&&&&&&&&&&&&&&&&&&&&&",
"======&&&&&&&&&&&&&&&&&&&&&&&&&&&&&&&&&&&&&&&&&&&&======             &&&&&&&&&&&&&&&&&&&&&&&&&&&&&&&",
"------&&&&&&-------******......&&&&&&-------******------      *******......============*******&&&&&&",
"------&&&&&&-------******......&&&&&&-------******------      *******......============*******&&&&&&",
"------&&&&&&-------******......&&&&&&-------******------      *******......============*******&&&&&&",
"------&&&&&&-------******......&&&&&&-------******------      *******......============*******&&&&&&",
"------&&&&&&-------******......&&&&&&-------******------      *******......============*******&&&&&&",
"------&&&&&&-------******......&&&&&&-------******------      *******......============*******&&&&&&",
";;;;;;******===================******=============------&&&&&&*******=========================******",
";;;;;;******===================******=============------&&&&&&*******=========================******",
";;;;;;******===================******=============------&&&&&&*******=========================******",
";;;;;;******===================******=============------&&&&&&*******=========================******",
";;;;;;******===================******=============------&&&&&&*******=========================******",
";;;;;;------;;;;;;;;;;;;;;;;;;;-------------;;;;;;;;;;;;;;;;;;--------------------------------------",
";;;;;;------;;;;;;;;;;;;;;;;;;;-------------;;;;;;;;;;;;;;;;;;--------------------------------------",
";;;;;;------;;;;;;;;;;;;;;;;;;;-------------;;;;;;;;;;;;;;;;;;--------------------------------------",
";;;;;;------;;;;;;;;;;;;;;;;;;;-------------;;;;;;;;;;;;;;;;;;--------------------------------------",
";;;;;;------;;;;;;;;;;;;;;;;;;;-------------;;;;;;;;;;;;;;;;;;--------------------------------------",
";;;;;;------;;;;;;;;;;;;;;;;;;;-------------;;;;;;;;;;;;;;;;;;--------------------------------------",
"-------------------------;;;;;;---------------------------------------------------------------------",
"-------------------------;;;;;;---------------------------------------------------------------------",
"-------------------------;;;;;;---------------------------------------------------------------------",
"-------------------------;;;;;;---------------------------------------------------------------------",
"-------------------------;;;;;;---------------------------------------------------------------------",
"-------------------------;;;;;;---------------------------------------------------------------------",
";;;;;;;;;;;;;;;;;;;;;;;;;;;;;;;;;;;;;;;;;;;;;;;;;;;;;;;;;;;;;;;;;;;;;;;;;;;;;;;;;;;;;;;;;;;;;;;;;;;;",
";;;;;;;;;;;;;;;;;;;;;;;;;;;;;;;;;;;;;;;;;;;;;;;;;;;;;;;;;;;;;;;;;;;;;;;;;;;;;;;;;;;;;;;;;;;;;;;;;;;;",
";;;;;;;;;;;;;;;;;;;;;;;;;;;;;;;;;;;;;;;;;;;;;;;;;;;;;;;;;;;;;;;;;;;;;;;;;;;;;;;;;;;;;;;;;;;;;;;;;;;;",
";;;;;;;;;;;;;;;;;;;;;;;;;;;;;;;;;;;;;;;;;;;;;;;;;;;;;;;;;;;;;;;;;;;;;;;;;;;;;;;;;;;;;;;;;;;;;;;;;;;;",
";;;;;;;;;;;;;;;;;;;;;;;;;;;;;;;;;;;;;;;;;;;;;;;;;;;;;;;;;;;;;;;;;;;;;;;;;;;;;;;;;;;;;;;;;;;;;;;;;;;;",
";;;;;;;;;;;;;;;;;;;;;;;;;;;;;;;;;;;;;;;;;;;;;;;;;;;;;;;;;;;;;;;;;;;;;;;;;;;;;;;;;;;;;;;;;;;;;;;;;;;;",
">>>>>>>>>>>>>>>>>>>>>>>>>>>>>>>>>>>>>>>>>>>>>>>>>>>>>>>>>>>>>>>>>>>>>>>>>>>>>>>>>>>>>>>>>>>>>>>>>>>>",
">>>>>>>>>>>>>>>>>>>>>>>>>>>>>>>>>>>>>>>>>>>>>>>>>>>>>>>>>>>>>>>>>>>>>>>>>>>>>>>>>>>>>>>>>>>>>>>>>>>>",
">>>>>>>>>>>>>>>>>>>>>>>>>>>>>>>>>>>>>>>>>>>>>>>>>>>>>>>>>>>>>>>>>>>>>>>>>>>>>>>>>>>>>>>>>>>>>>>>>>>>",
">>>>>>>>>>>>>>>>>>>>>>>>>>>>>>>>>>>>>>>>>>>>>>>>>>>>>>>>>>>>>>>>>>>>>>>>>>>>>>>>>>>>>>>>>>>>>>>>>>>>",
">>>>>>>>>>>>>>>>>>>>>>>>>>>>>>>>>>>>>>>>>>>>>>>>>>>>>>>>>>>>>>>>>>>>>>>>>>>>>>>>>>>>>>>>>>>>>>>>>>>>",
">>>>>>>>>>>>>>>>>>>>>>>>>>>>>>>>>>>>>>>>>>>>>>>>>>>>>>>>>>>>>>>>>>>>>>>>>>>>>>>>>>>>>>>>>>>>>>>>>>>>"};
